<svg width="697" height="845" viewBox="0 0 697 845" fill="none" xmlns="http://www.w3.org/2000/svg">
<path d="M206.155 273.855L11.0454 234.652L8.50973 234.144C7.21848 233.883 5.87431 233.967 4.63176 234.385C3.38921 234.804 2.29876 235.541 1.48581 236.511C0.672868 237.481 0.170413 238.646 0.0362689 239.87C-0.097875 241.094 0.14175 242.329 0.72753 243.432L78.194 389.961C78.6954 390.903 79.4322 391.718 80.3425 392.339C81.2529 392.96 82.31 393.368 83.4249 393.529C84.5434 393.691 85.6873 393.597 86.758 393.255C87.8287 392.913 88.794 392.333 89.5703 391.566L143.377 338.722C143.759 338.337 144.224 338.029 144.74 337.819C145.257 337.609 145.814 337.501 146.378 337.501C147.144 337.491 147.899 337.675 148.561 338.034C149.224 338.393 149.769 338.912 150.139 339.537L161.16 358.525C161.863 359.791 163.001 360.801 164.393 361.395C165.784 361.989 167.349 362.132 168.838 361.802L168.892 361.791C170.399 361.493 171.755 360.733 172.742 359.631C173.729 358.529 174.289 357.15 174.333 355.716L176.541 311.887C176.567 311.34 176.714 310.804 176.972 310.312C177.249 309.825 177.624 309.393 178.078 309.04L209.119 285.306C210.14 284.526 210.903 283.494 211.323 282.328C211.743 281.162 211.801 279.91 211.492 278.715C211.182 277.519 210.517 276.429 209.574 275.57C208.63 274.71 207.445 274.116 206.155 273.855H206.155ZM207.347 283.288L176.306 307.022C175.901 307.326 175.534 307.67 175.213 308.05L10.6927 238.554C10.5476 238.491 10.3963 238.441 10.2408 238.406C9.6062 238.254 8.93441 238.313 8.3416 238.573C7.74879 238.833 7.27221 239.278 6.99432 239.831C6.71643 240.384 6.65468 241.009 6.81976 241.6C6.98484 242.191 7.36636 242.709 7.89834 243.066L143.171 335.619C142.484 335.951 141.864 336.391 141.339 336.92L87.5329 389.763C87.066 390.221 86.4874 390.567 85.8462 390.772C85.2051 390.976 84.5204 391.034 83.8503 390.939C83.1802 390.845 82.5445 390.601 81.9971 390.229C81.4498 389.856 81.0071 389.367 80.7066 388.801L3.24011 242.272C2.8938 241.61 2.75408 240.871 2.8369 240.138C2.91973 239.406 3.22174 238.71 3.70855 238.129C4.19536 237.549 4.84739 237.108 5.59034 236.856C6.33329 236.604 7.13731 236.551 7.91076 236.704L10.5066 237.227L205.555 276.415C206.33 276.571 207.041 276.927 207.609 277.442C208.176 277.958 208.576 278.612 208.763 279.329C208.95 280.046 208.916 280.798 208.666 281.498C208.415 282.198 207.958 282.819 207.347 283.288V283.288Z" fill="#BBDED6"/>
<path d="M188.747 839.846C171.246 835.443 149.946 817.131 154.506 791.961C156.768 779.478 165.448 771.397 174.448 766.172C186.896 758.945 201.074 756.222 214.737 755.534C230.496 754.74 246.238 756.741 261.88 758.857C277.321 760.946 292.764 762.817 308.275 763.959C368.968 768.393 430.032 764.17 489.356 751.436C503.998 748.288 518.552 744.596 533.018 740.359C546.727 736.601 560.129 731.935 573.124 726.397C590.323 718.706 618.293 703.74 616.012 676.023C614.803 661.326 605.511 649.588 596.138 641.411C584.806 631.523 571.692 625.017 558.849 618.7C499.108 589.314 439.251 560.277 379.452 531.068C365.496 524.251 351.446 517.617 337.902 509.628C325.22 502.149 312.599 493.461 302.393 481.448C293.48 470.956 285.515 456.87 285.796 441.124C286.029 428.066 292.409 416.985 300.222 408.703C319.568 388.199 346.934 379.886 371.667 375.531C402.395 370.121 433.569 370.149 464.317 364.925C489.145 360.707 515.673 352.564 535.864 333.482C544.406 325.72 550.447 315.889 553.306 305.098C555.884 293.796 554.631 282.027 549.72 271.417C544.25 259.248 535.525 249.554 526.351 241.617C515.812 232.625 503.86 225.188 490.908 219.561C463.637 207.457 434.96 201.155 407.026 191.866C393.327 187.31 379.489 182.315 366.768 174.49C355.99 167.861 344.25 158.925 338.254 145.637C325.883 118.221 355.397 101.881 372.12 95.6922C383.486 91.6766 395.194 88.5548 407.12 86.3595C409.642 85.8552 408.572 81.1669 406.062 81.6688C393.508 83.9484 381.205 87.2944 369.307 91.665C359.223 95.5676 348.818 100.696 340.896 109.522C337.29 113.507 334.623 118.154 333.07 123.161C331.516 128.167 331.111 133.423 331.879 138.585C333.977 151.74 343.098 161.876 351.663 169.217C362.99 178.926 375.905 185.266 389 190.435C402.791 195.878 416.874 200.12 430.953 204.281C459.085 212.596 488.48 220.006 513.876 237.699C531.641 250.076 555.775 273.282 549.865 302.047C547.242 314.816 539.276 324.799 530.68 332.141C520.585 340.51 508.943 347.103 496.321 351.601C440.043 372.696 378.106 357.61 323.279 386.262C304.637 396.004 281.994 413.741 281.812 441.649C281.717 456.147 287.956 469.443 295.67 479.952C304.908 492.54 316.871 501.848 329.043 509.628C341.86 517.519 355.167 524.696 368.896 531.119C383.894 538.457 398.895 545.784 413.899 553.102L504.953 597.577L550.194 619.675C564.002 626.419 578.164 632.889 590.718 642.789C600.997 650.896 613.142 664.195 612.093 680.708C611.26 693.823 601.907 703.287 593.36 709.614C582.292 717.808 569.859 723.107 557.489 727.511C543.221 732.591 528.718 736.804 514.187 740.593C484.422 748.341 454.045 753.88 423.34 757.155C392.711 760.44 361.856 761.511 331.049 760.359C315.484 759.776 299.943 758.616 284.426 756.88C268.431 755.086 252.505 752.322 236.469 751.095C221.965 749.986 207.32 750.243 193.036 753.808C181.109 756.785 168.508 762.092 159.455 772.446C152.781 780.351 149.44 790.255 150.058 800.294C150.671 810.313 154.506 819.928 161.065 827.889C167.726 836.02 177.086 841.873 187.689 844.536C190.189 845.165 191.258 840.477 188.747 839.846L188.747 839.846Z" fill="#E6E6E6"/>
<path d="M603.567 704.096C619.973 704.096 633.273 691.708 633.273 676.427C633.273 661.146 619.973 648.758 603.567 648.758C587.161 648.758 573.861 661.146 573.861 676.427C573.861 691.708 587.161 704.096 603.567 704.096Z" fill="#E6E6E6"/>
<path d="M549.372 314.115C565.778 314.115 579.078 301.727 579.078 286.446C579.078 271.165 565.778 258.777 549.372 258.777C532.966 258.777 519.666 271.165 519.666 286.446C519.666 301.727 532.966 314.115 549.372 314.115Z" fill="#E6E6E6"/>
<path d="M482.209 1.15266L399.725 34.5515C396.082 36.0312 393.218 38.7964 391.761 42.2404C390.305 45.6845 390.374 49.5261 391.954 52.9226L417.567 107.8C419.155 111.193 422.124 113.86 425.822 115.217C429.519 116.574 433.644 116.51 437.29 115.038L519.774 81.6389C523.417 80.1593 526.282 77.3941 527.738 73.95C529.195 70.506 529.126 66.6642 527.545 63.2677L501.933 8.39082C500.344 4.99765 497.376 2.32995 493.678 0.973002C489.98 -0.383946 485.856 -0.319334 482.209 1.15266V1.15266ZM485.624 8.46958C486.118 8.27199 486.636 8.13306 487.166 8.05606L459.279 57.0625L402.003 42.4632C402.359 42.2295 402.74 42.0302 403.14 41.8685L485.624 8.46958ZM516.359 74.322L433.875 107.721C432.313 108.352 430.545 108.379 428.96 107.798C427.376 107.216 426.103 106.073 425.422 104.619L400.04 50.2346L460.327 65.6014C461.266 65.8407 462.264 65.7749 463.157 65.4151C464.051 65.0553 464.786 64.4228 465.242 63.6218L494.43 12.3274L519.69 66.4485C520.367 67.9042 520.397 69.5507 519.772 71.0267C519.148 72.5027 517.921 73.6878 516.359 74.322V74.322Z" fill="#E6E6E6"/>
<path d="M206.155 273.855L11.0454 234.652L8.50973 234.144C7.21848 233.883 5.87431 233.967 4.63176 234.385C3.38921 234.804 2.29876 235.541 1.48581 236.511C0.672868 237.481 0.170413 238.646 0.0362689 239.87C-0.097875 241.094 0.14175 242.329 0.72753 243.432L78.194 389.961C78.6954 390.903 79.4322 391.718 80.3425 392.339C81.2529 392.96 82.31 393.368 83.4249 393.529C84.5434 393.691 85.6873 393.597 86.758 393.255C87.8287 392.913 88.794 392.333 89.5703 391.566L143.377 338.722C143.759 338.337 144.224 338.029 144.74 337.819C145.257 337.609 145.814 337.501 146.378 337.501C147.144 337.491 147.899 337.675 148.561 338.034C149.224 338.393 149.769 338.912 150.139 339.537L161.16 358.525C161.863 359.791 163.001 360.801 164.393 361.395C165.784 361.989 167.349 362.132 168.838 361.802L168.892 361.791C170.399 361.493 171.755 360.733 172.742 359.631C173.729 358.529 174.289 357.15 174.333 355.716L176.541 311.887C176.567 311.34 176.714 310.804 176.972 310.312C177.249 309.825 177.624 309.393 178.078 309.04L209.119 285.306C210.14 284.526 210.903 283.494 211.323 282.328C211.743 281.162 211.801 279.91 211.492 278.715C211.182 277.519 210.517 276.429 209.574 275.57C208.63 274.71 207.445 274.116 206.155 273.855H206.155ZM207.347 283.288L176.306 307.022C175.901 307.326 175.534 307.67 175.213 308.05C174.923 308.388 174.672 308.754 174.466 309.141C174.249 309.538 174.079 309.954 173.957 310.384L173.96 310.397C173.831 310.845 173.757 311.305 173.739 311.768L171.532 355.597C171.513 356.459 171.18 357.29 170.588 357.952C169.995 358.614 169.179 359.069 168.272 359.241L168.245 359.247C167.351 359.454 166.409 359.373 165.571 359.019C164.732 358.664 164.047 358.056 163.627 357.293L152.602 338.293C152.034 337.316 151.208 336.49 150.201 335.894C149.194 335.298 148.04 334.951 146.849 334.887L146.836 334.89C146.675 334.883 146.516 334.876 146.359 334.881C145.248 334.882 144.153 335.135 143.171 335.619C142.484 335.951 141.865 336.391 141.339 336.92L87.5329 389.763C87.066 390.221 86.4874 390.567 85.8463 390.772C85.2052 390.976 84.5204 391.034 83.8503 390.939C83.1802 390.845 82.5445 390.601 81.9972 390.229C81.4499 389.856 81.0071 389.367 80.7066 388.801L3.24011 242.272C2.8938 241.61 2.75408 240.871 2.8369 240.138C2.91973 239.406 3.22174 238.71 3.70855 238.129C4.19536 237.549 4.84739 237.108 5.59034 236.856C6.33329 236.604 7.13731 236.551 7.91076 236.704L10.5066 237.227L205.555 276.415C206.33 276.571 207.041 276.927 207.609 277.442C208.176 277.958 208.576 278.612 208.763 279.329C208.95 280.046 208.916 280.798 208.666 281.498C208.415 282.198 207.958 282.819 207.347 283.288V283.288Z" fill="#3F3D56"/>
<path d="M175.836 308.31L174.676 310.691L173.96 310.397L173.957 310.384L9.5671 240.955L146.836 334.89L146.849 334.887L147.213 335.147L145.558 337.255L143.171 335.618L7.89858 243.066C7.3666 242.709 6.98507 242.191 6.82 241.6C6.65492 241.009 6.71667 240.383 6.99456 239.831C7.27245 239.278 7.74902 238.833 8.34183 238.573C8.93464 238.313 9.60644 238.254 10.241 238.406C10.3965 238.441 10.5479 238.491 10.693 238.554L175.213 308.05L175.836 308.31Z" fill="#3F3D56"/>
<path d="M455.923 465.973C455.923 465.973 467.354 444.388 465.867 430.073C464.379 415.758 450.33 413.201 450.33 413.201C450.33 413.201 416.439 395.363 408.582 383L408.848 401.084C402.694 398.936 397.016 395.59 392.136 391.234C392.136 391.234 386.853 400.456 392.557 408.668C392.557 408.668 382.57 410.643 376 403.956C376 403.956 379.351 431.106 403.033 434.606C418.636 436.805 438.944 467.028 455.923 465.973Z" fill="white"/>
<path d="M454.835 467C445.386 467 435.243 458.517 425.437 450.323C417.018 443.291 409.092 436.638 402.241 435.656C377.791 432.084 374.052 404.401 374.007 404.178C373.981 403.948 374.027 403.715 374.139 403.513C374.252 403.31 374.424 403.148 374.633 403.047C374.842 402.947 375.077 402.913 375.306 402.952C375.535 402.99 375.746 403.099 375.91 403.262C377.805 404.939 380.031 406.203 382.445 406.972C384.859 407.741 387.407 407.998 389.926 407.727C385.448 399.534 390.217 391.095 390.441 390.738C390.519 390.594 390.628 390.469 390.76 390.373C390.893 390.277 391.045 390.211 391.206 390.181C391.367 390.151 391.533 390.158 391.691 390.2C391.849 390.242 391.996 390.319 392.12 390.425C396.599 394.244 401.664 397.32 407.122 399.534L406.875 383.125C406.866 382.885 406.939 382.648 407.081 382.454C407.223 382.26 407.427 382.119 407.659 382.054C407.892 381.979 408.142 381.982 408.372 382.063C408.603 382.144 408.801 382.297 408.935 382.5C416.369 394.02 448.118 410.83 450.491 412.081C452.215 412.46 465.358 415.742 466.858 429.941C468.381 444.474 457.163 465.527 456.693 466.42C456.602 466.586 456.47 466.727 456.309 466.828C456.149 466.93 455.965 466.989 455.775 467H454.835ZM376.828 406.901C378.53 413.867 384.486 430.789 402.577 433.446C410.032 434.54 418.25 441.371 426.87 448.604C436.385 456.552 446.192 464.768 454.835 464.768H455.014C456.783 461.307 465.94 442.733 464.619 430.142C463.231 416.747 450.446 414.514 449.909 414.335L449.595 414.224C448.274 413.554 419.682 398.596 409.159 386.563L409.383 401.164C409.384 401.335 409.346 401.504 409.273 401.659C409.199 401.813 409.091 401.949 408.958 402.057C408.821 402.165 408.66 402.239 408.489 402.274C408.318 402.309 408.141 402.303 407.973 402.258C402.048 400.24 396.563 397.119 391.807 393.06C390.657 395.422 390.139 398.041 390.304 400.662C390.468 403.283 391.31 405.817 392.747 408.018C392.848 408.175 392.911 408.354 392.93 408.54C392.95 408.726 392.925 408.914 392.859 409.089C392.788 409.261 392.675 409.412 392.53 409.529C392.386 409.646 392.214 409.725 392.031 409.759C386.784 410.664 381.385 409.649 376.828 406.901V406.901Z" fill="#231F20"/>
<path d="M438.029 688C438.029 688 492.409 621.442 501.402 570.603C510.396 519.764 478.974 508.086 468.014 504.291C457.054 500.495 399.934 476.56 371.253 497.459C342.571 518.357 314 648.726 314 648.726L438.029 688Z" fill="#BBDED6"/>
<path d="M241.785 752L300.174 679.288C300.174 679.288 340.805 627.531 318.107 622C318.107 622 286.608 626.098 235.146 644.034C219.859 649.344 193.588 709.981 177 752H241.785Z" fill="#231F20"/>
<path d="M241.261 754H176.033C175.853 754 175.676 753.956 175.517 753.87C175.358 753.784 175.223 753.66 175.124 753.509C175.043 753.35 175 753.174 175 752.995C175 752.816 175.043 752.64 175.124 752.481C193.615 705.216 218.89 647.72 234.232 642.337C285.447 624.467 317.507 620 317.839 620H318.238C319.852 620.288 321.361 621.003 322.611 622.07C323.861 623.137 324.808 624.519 325.355 626.076C330.61 641.265 302.054 678.21 300.834 679.685L242.125 753.397C242.042 753.562 241.919 753.703 241.768 753.808C241.617 753.914 241.443 753.979 241.261 754V754ZM177.785 751.766H240.728L298.905 678.389C299.193 678.032 327.927 640.863 323.094 626.835C322.681 625.662 321.968 624.62 321.025 623.816C320.082 623.011 318.945 622.473 317.729 622.256C314.935 622.636 283.629 627.327 234.787 644.459C223.524 648.413 203.304 686.497 177.674 751.766H177.785Z" fill="#231F20"/>
<path d="M340.026 752L354.849 715.994C354.849 715.994 391.024 726.794 415.156 717.732C432.14 711.353 437.324 689.468 445 671.74C445 671.74 343.534 647.766 320.88 638C320.88 638 319.468 638 293.506 665.186C281.904 677.393 272.661 714.587 266 752H340.026Z" fill="#231F20"/>
<path d="M340.506 754H266.12C265.955 754.002 265.792 753.967 265.643 753.898C265.493 753.829 265.361 753.728 265.255 753.601C265.156 753.478 265.083 753.336 265.041 753.184C264.999 753.031 264.989 752.872 265.012 752.716C273.523 704.886 282.943 675.213 292.962 664.739C319.383 636.927 320.802 636.993 321.311 637.016C321.444 636.995 321.578 636.995 321.71 637.016C344.208 646.892 445.237 670.784 446.168 671.028C446.324 671.067 446.47 671.138 446.596 671.237C446.722 671.336 446.826 671.461 446.9 671.604C446.966 671.75 447 671.908 447 672.069C447 672.229 446.966 672.388 446.9 672.534C445.459 675.855 444.085 679.398 442.755 682.808C436.792 698.154 430.608 714.031 416.267 719.434C393.88 727.848 362.007 719.655 355.933 717.972L341.415 753.402C341.33 753.573 341.201 753.718 341.041 753.823C340.882 753.928 340.697 753.989 340.506 754V754ZM267.361 751.786H339.775L354.404 716.223C354.504 715.968 354.696 715.76 354.943 715.641C355.19 715.522 355.472 715.501 355.734 715.581C356.111 715.581 392.019 726.232 415.58 717.352C428.879 712.326 434.975 696.914 440.782 681.923C441.957 678.889 443.176 675.767 444.439 672.777C432.67 669.965 343.565 648.574 321.356 639.274C320.092 640.226 314.861 644.81 294.536 666.179C285.071 676.254 275.695 705.816 267.428 751.786H267.361Z" fill="#231F20"/>
<path d="M371 498C371 498 346.63 524.729 333.027 538.094C319.424 551.459 292.75 568.766 292.75 568.766C292.75 568.766 213.216 575.203 212.374 576.473C211.532 577.743 212.374 604.294 212.374 604.294C212.374 604.294 290.092 619.284 304.271 616.701C318.45 614.117 351.903 591.508 351.903 591.508L371 498Z" fill="#BBDED6"/>
<path d="M404.974 484.83L402.5 509.885C402.5 509.885 406.957 524.266 423.937 521.691C440.917 519.117 443.992 507.533 443.992 507.533L455 458.577C455 458.577 444.816 451.254 435.212 422.626C435.212 422.626 399.737 415.969 398.511 429.595C398.511 429.595 391.514 454.006 392.027 466.899C392.495 479.438 404.751 484.631 404.974 484.83Z" fill="white"/>
<path d="M419.473 522.999C415.369 523.029 411.357 521.808 407.989 519.507C404.621 517.206 402.064 513.938 400.67 510.152C400.636 510.014 400.636 509.87 400.67 509.732L403.06 485.407C395.011 481.117 390.321 474.35 390.028 466.92C389.51 454.006 396.341 430.412 396.634 429.328C396.746 428.209 397.104 427.127 397.684 426.157C398.264 425.188 399.052 424.353 399.993 423.711C409.012 416.945 434.016 421.5 435.053 421.5C435.254 421.539 435.44 421.629 435.595 421.761C435.749 421.893 435.865 422.062 435.932 422.252C445.356 449.96 455.435 457.456 455.547 457.633C455.72 457.762 455.852 457.936 455.928 458.136C456.003 458.336 456.02 458.552 455.976 458.761L444.838 507.542C444.68 508.095 441.23 519.859 423.622 522.513C422.252 522.771 420.866 522.933 419.473 522.999ZM402.879 509.732C403.511 511.456 408.245 522.778 423.171 520.523C439.337 518.09 442.516 507.255 442.538 507.255L453.518 459.203C451.151 457.191 442.245 448.434 433.88 423.822C429.912 423.158 408.809 419.974 401.234 425.613C400.52 426.098 399.926 426.733 399.493 427.471C399.06 428.209 398.8 429.032 398.731 429.881C398.731 430.323 391.674 454.205 392.17 466.898C392.553 476.319 399.993 481.471 404.39 483.682C404.582 483.773 404.764 483.884 404.931 484.014C405.055 484.129 405.15 484.271 405.209 484.428C405.268 484.586 405.288 484.754 405.269 484.921L402.879 509.732Z" fill="#231F20"/>
<path d="M442.164 459.069C442.967 456.859 444.502 454.954 446.541 453.637C449.604 451.507 453.435 450.613 457.192 451.154C461.523 452.307 463.723 457.318 462.787 461.486C462.207 463.984 460.966 466.302 459.18 468.222C457.395 470.141 455.124 471.6 452.581 472.46C450.83 472.951 448.994 473.109 447.178 472.926C445.363 472.744 443.603 472.224 442 471.396" fill="white"/>
<path d="M448.724 473.997C446.236 474.008 443.786 473.421 441.602 472.291C441.469 472.222 441.351 472.129 441.256 472.017C441.161 471.905 441.09 471.776 441.047 471.638C441.004 471.5 440.99 471.356 441.007 471.212C441.023 471.069 441.068 470.931 441.141 470.804C441.214 470.678 441.312 470.566 441.43 470.476C441.548 470.386 441.684 470.318 441.829 470.278C441.975 470.237 442.127 470.224 442.278 470.239C442.429 470.255 442.575 470.298 442.708 470.367C445.631 471.868 449.06 472.214 452.25 471.329C454.55 470.535 456.601 469.203 458.213 467.456C459.825 465.709 460.945 463.604 461.47 461.336C462.23 457.903 460.502 453.398 456.86 452.436C455.196 452.186 453.497 452.251 451.859 452.626C450.222 453.001 448.678 453.68 447.318 454.623C445.515 455.774 444.162 457.457 443.469 459.411C443.371 459.701 443.156 459.943 442.871 460.082C442.585 460.221 442.253 460.248 441.948 460.155C441.642 460.062 441.388 459.858 441.241 459.587C441.094 459.317 441.066 459.002 441.164 458.712C442.03 456.307 443.697 454.235 445.912 452.808C447.549 451.659 449.413 450.836 451.394 450.389C453.374 449.942 455.43 449.879 457.436 450.205C462.461 451.517 464.766 457.203 463.774 461.664C463.183 464.355 461.871 466.857 459.966 468.929C458.061 471.001 455.626 472.573 452.896 473.494C451.539 473.856 450.133 474.026 448.724 473.997V473.997Z" fill="#231F20"/>
<path d="M418 447C418 447 407.359 458.727 409.218 461.2C411.077 463.673 417.233 462.878 417.233 462.878" fill="white"/>
<path d="M415.079 463.942C413.863 464.069 412.633 463.937 411.476 463.556C410.318 463.175 409.262 462.553 408.38 461.735C406.345 458.976 412.953 450.699 417.091 446.284C417.298 446.104 417.567 446.003 417.845 446C418.124 445.997 418.395 446.093 418.606 446.27C418.816 446.446 418.953 446.691 418.99 446.958C419.027 447.225 418.961 447.495 418.806 447.719C413.776 453.369 409.775 459.373 410.255 460.587C411.284 461.956 414.988 462.044 417.114 461.779C417.417 461.741 417.724 461.821 417.966 462.001C418.208 462.181 418.366 462.447 418.406 462.739C418.445 463.032 418.363 463.328 418.176 463.562C417.989 463.796 417.714 463.948 417.411 463.986C416.634 464.014 415.855 463.999 415.079 463.942V463.942Z" fill="#231F20"/>
<path d="M436.177 445.173C436.442 443.526 435.719 442.039 434.56 441.85C433.402 441.662 432.248 442.845 431.983 444.492C431.717 446.138 432.441 447.626 433.599 447.814C434.757 448.002 435.912 446.819 436.177 445.173Z" fill="#231F20"/>
<path d="M408.487 446.239C409.659 446.198 410.563 444.814 410.505 443.146C410.448 441.479 409.45 440.161 408.278 440.202C407.105 440.243 406.201 441.627 406.259 443.294C406.317 444.962 407.314 446.28 408.487 446.239Z" fill="#231F20"/>
<path d="M404.668 484C404.668 484 419.532 489.241 429 484.794C429 484.794 417.083 505.216 403 501.562L404.668 484Z" fill="#231F20"/>
<path d="M406.559 503C405.3 503.006 404.044 502.848 402.823 502.528C402.574 502.461 402.356 502.305 402.206 502.088C402.056 501.87 401.984 501.605 402.003 501.339L403.644 483.962C403.658 483.793 403.708 483.628 403.791 483.481C403.873 483.334 403.985 483.207 404.119 483.109C404.264 483.037 404.422 483 404.583 483C404.744 483 404.902 483.037 405.047 483.109C405.198 483.109 419.601 488.093 428.54 483.917C428.752 483.824 428.986 483.802 429.211 483.854C429.436 483.906 429.639 484.03 429.792 484.209C429.927 484.401 430 484.633 430 484.871C430 485.11 429.927 485.341 429.792 485.534C429.447 486.207 419.428 503 406.559 503ZM404.248 500.553C413.943 502.326 422.602 492.067 426.229 487.083C418.478 489.058 409.064 486.656 405.652 485.623L404.248 500.553Z" fill="#231F20"/>
<path d="M404.809 450.978H404.089L396.036 450.329C393.73 450.141 391.591 449.023 390.09 447.221C388.588 445.418 387.846 443.079 388.027 440.717L388.55 434.01C388.578 433.717 388.717 433.447 388.938 433.259C389.159 433.071 389.443 432.979 389.729 433.004L412.992 434.882C413.281 434.914 413.546 435.058 413.734 435.284C413.829 435.393 413.901 435.521 413.946 435.659C413.991 435.797 414.008 435.944 413.996 436.089L413.473 442.796C413.291 445.037 412.292 447.126 410.674 448.647C409.057 450.167 406.939 451.008 404.743 451L404.809 450.978ZM390.645 435.329L390.209 440.828C390.076 442.597 390.634 444.348 391.758 445.697C392.883 447.046 394.484 447.884 396.21 448.027L404.263 448.675C405.118 448.756 405.98 448.659 406.798 448.39C407.615 448.121 408.371 447.686 409.021 447.11C410.324 445.983 411.146 444.378 411.312 442.639L411.727 437.14L390.645 435.329Z" fill="#231F20"/>
<path d="M434.823 453H434.102L426.043 452.367C423.735 452.19 421.594 451.135 420.091 449.435C418.588 447.735 417.846 445.528 418.027 443.3L418.551 436.974C418.562 436.835 418.601 436.7 418.667 436.576C418.732 436.452 418.822 436.342 418.932 436.252C419.041 436.162 419.168 436.093 419.305 436.051C419.442 436.008 419.587 435.992 419.73 436.004L443.013 437.796C443.154 437.807 443.291 437.844 443.417 437.906C443.543 437.968 443.654 438.054 443.746 438.157C443.837 438.261 443.906 438.382 443.949 438.511C443.992 438.641 444.008 438.778 443.996 438.914L443.494 445.24C443.318 447.358 442.32 449.334 440.7 450.773C439.081 452.211 436.958 453.007 434.757 453H434.823ZM434.277 450.891C436.007 451.02 437.719 450.482 439.038 449.394C440.302 448.312 441.084 446.802 441.222 445.177L441.659 439.989L420.626 438.239L420.211 443.405C420.078 445.074 420.636 446.725 421.761 447.998C422.887 449.271 424.489 450.061 426.217 450.195L434.277 450.891Z" fill="#231F20"/>
<path d="M418.726 442L413.014 441.653C412.87 441.645 412.729 441.615 412.6 441.566C412.471 441.516 412.356 441.448 412.262 441.365C412.168 441.282 412.097 441.186 412.053 441.082C412.008 440.979 411.992 440.869 412.004 440.761C412.037 440.545 412.178 440.346 412.398 440.205C412.618 440.064 412.901 439.991 413.19 440.001L418.902 440.348C419.193 440.348 419.472 440.435 419.678 440.59C419.884 440.745 420 440.955 420 441.174C420 441.393 419.884 441.603 419.678 441.758C419.472 441.913 419.193 442 418.902 442H418.726Z" fill="#231F20"/>
<path d="M414.956 481C408.354 481 403.145 475.522 401.056 469.139C401 468.961 400.985 468.77 401.015 468.584C401.044 468.398 401.117 468.223 401.225 468.075C401.319 467.918 401.451 467.793 401.608 467.713C401.764 467.633 401.939 467.602 402.111 467.622C411.113 468.128 420.112 466.585 428.519 463.095C428.686 463.017 428.868 462.986 429.05 463.006C429.231 463.026 429.404 463.095 429.552 463.208C429.704 463.321 429.825 463.474 429.903 463.653C429.981 463.832 430.013 464.03 429.995 464.227C429.995 464.748 428.899 477.175 418.711 480.298C417.498 480.726 416.233 480.963 414.956 481ZM403.587 469.954C405.802 474.956 410.928 480.457 418.078 478.238C424.659 476.224 426.853 469.388 427.549 466.038C419.848 468.888 411.729 470.215 403.587 469.954Z" fill="#231F20"/>
<path d="M495.883 525.041C508.73 531.087 529.59 672.735 506.92 682.28C471.602 697.051 376 646.846 376 646.846L394.807 609.706C394.807 609.706 459.748 629.107 464.251 615.863C468.754 602.62 446.46 529.78 454.053 521.852C461.647 513.924 495.883 525.041 495.883 525.041Z" fill="#BBDED6"/>
<path d="M398 625.163C386.98 622.869 376.239 619.348 365.97 614.663C358.089 610.818 351.286 607.13 342.503 605.197C331.604 602.779 320.372 602.353 309.328 603.938C308.882 603.974 308.451 604.12 308.073 604.365C306.774 605.489 308.69 607.423 310.275 607.94C314.562 609.227 319.015 609.848 323.483 609.784C312.185 610.847 301.079 613.456 290.462 617.541C289.251 618.013 287.82 618.89 288.019 620.172C288.217 621.453 290.33 621.836 291.827 621.588L318.023 617.091C311.327 617.904 304.81 619.849 298.739 622.847C297.881 623.275 296.89 623.904 296.846 624.894C296.846 626.603 299.18 626.917 300.831 626.58C308.869 624.923 316.75 622.553 324.386 619.497L307.017 626.805C306.937 627.108 306.918 627.423 306.959 627.734C307.001 628.044 307.102 628.343 307.258 628.613C307.414 628.883 307.62 629.119 307.866 629.306C308.112 629.494 308.392 629.63 308.69 629.705C309.904 629.944 311.159 629.843 312.322 629.413L330.88 624.332L318.97 628.829C317.099 629.526 314.831 630.83 315.14 632.853C315.492 635.237 318.728 635.417 321.061 635.102C330.291 633.694 339.646 633.34 348.953 634.045C352.365 634.247 355.777 633.663 359.035 634.675C363.724 636.136 368.457 639.599 372.816 641.937C379.64 645.58 386.443 649.29 393.245 653" fill="white"/>
<path d="M394.395 652.999C394.226 653.005 394.059 652.967 393.91 652.889C387.117 649.242 380.296 645.609 373.444 641.992C372.077 641.283 370.666 640.442 369.232 639.578C366.278 637.676 363.119 636.116 359.816 634.927C357.732 634.416 355.582 634.23 353.442 634.373C352.273 634.373 351.127 634.373 349.958 634.373C340.708 633.679 331.41 634.028 322.237 635.414C320.275 635.831 318.229 635.541 316.459 634.595C316.102 634.336 315.802 634.005 315.578 633.624C315.354 633.243 315.211 632.819 315.158 632.38C315.071 631.767 315.145 631.142 315.373 630.567C315.602 629.992 315.976 629.487 316.459 629.102L313.592 629.877C312.243 630.37 310.78 630.463 309.38 630.143C308.902 629.988 308.46 629.737 308.081 629.406C307.702 629.075 307.394 628.67 307.175 628.216C307.02 627.868 306.941 627.49 306.941 627.109C306.941 626.727 307.02 626.35 307.175 626.002C305.477 626.4 303.801 626.777 302.103 627.131C301.356 627.319 300.578 627.35 299.818 627.22C299.059 627.09 298.335 626.804 297.692 626.378C297.415 626.139 297.197 625.838 297.056 625.5C296.914 625.162 296.852 624.795 296.876 624.429C296.876 622.702 298.684 621.86 299.324 621.55L300.603 620.952L292.995 622.237C291.653 622.533 290.249 622.329 289.047 621.661C288.776 621.466 288.547 621.219 288.372 620.933C288.198 620.648 288.083 620.331 288.033 620C287.9 619.114 288.033 617.453 291.12 616.323C298.917 613.317 306.991 611.091 315.224 609.679C313.807 609.47 312.401 609.189 311.012 608.837C310.242 608.624 309.534 608.227 308.95 607.679C308.367 607.132 307.924 606.45 307.66 605.692C307.588 605.306 307.619 604.908 307.751 604.538C307.883 604.169 308.11 603.841 308.41 603.588C308.921 603.219 309.524 602.997 310.152 602.946C321.332 601.354 332.705 601.774 343.739 604.186C351.024 605.981 358.056 608.689 364.667 612.248L367.49 613.599C377.677 618.11 388.316 621.51 399.224 623.743C399.484 623.806 399.708 623.969 399.848 624.197C399.989 624.425 400.034 624.699 399.974 624.961C399.946 625.091 399.892 625.215 399.815 625.324C399.738 625.433 399.64 625.525 399.527 625.595C399.414 625.665 399.287 625.712 399.156 625.733C399.025 625.753 398.89 625.746 398.761 625.714C387.661 623.419 376.837 619.937 366.476 615.326L363.653 613.953C357.177 610.479 350.295 607.831 343.165 606.069C332.365 603.695 321.229 603.283 310.284 604.851C310.028 604.85 309.777 604.919 309.556 605.05C309.556 605.67 310.505 606.512 311.431 606.8C315.627 608.03 319.983 608.627 324.354 608.572V608.572C324.595 608.607 324.814 608.729 324.973 608.914C325.132 609.099 325.219 609.335 325.219 609.579C325.219 609.823 325.132 610.06 324.973 610.245C324.814 610.43 324.595 610.551 324.354 610.587C313.142 611.642 302.121 614.197 291.583 618.184C290.701 618.516 289.687 619.114 289.775 619.667C289.782 619.734 289.804 619.798 289.838 619.855C289.872 619.913 289.918 619.962 289.973 620C290.741 620.348 291.604 620.426 292.421 620.221L312.732 616.766C314.706 616.326 316.701 615.986 318.709 615.747C318.97 615.721 319.232 615.796 319.441 615.956C319.649 616.117 319.79 616.351 319.833 616.611C319.871 616.875 319.805 617.143 319.648 617.359C319.492 617.574 319.257 617.719 318.995 617.763L313.107 618.759C308.533 619.763 304.092 621.302 299.875 623.344C298.795 623.875 298.552 624.274 298.552 624.496C298.545 624.558 298.553 624.62 298.576 624.678C298.599 624.736 298.637 624.788 298.684 624.828C299.495 625.242 300.428 625.345 301.309 625.116C309.316 623.495 317.167 621.176 324.773 618.184C325.019 618.088 325.293 618.092 325.536 618.195C325.778 618.299 325.972 618.493 326.074 618.737C326.171 618.987 326.167 619.265 326.064 619.513C325.962 619.76 325.768 619.959 325.523 620.066L308.63 627.065C308.601 627.158 308.601 627.259 308.63 627.353C308.827 627.758 309.176 628.069 309.601 628.216C310.637 628.406 311.704 628.306 312.688 627.928L331.279 622.901C331.52 622.862 331.767 622.911 331.975 623.041C332.183 623.17 332.337 623.37 332.41 623.605C332.482 623.839 332.468 624.092 332.37 624.317C332.271 624.541 332.095 624.723 331.874 624.828L319.966 629.257C318.929 629.634 316.547 630.675 316.768 632.114C316.79 632.282 316.846 632.444 316.933 632.589C317.02 632.734 317.137 632.859 317.275 632.956C318.597 633.603 320.102 633.767 321.531 633.421C330.857 632.006 340.311 631.649 349.715 632.358C350.818 632.358 351.921 632.358 353.045 632.358C355.395 632.199 357.754 632.416 360.036 633C363.497 634.215 366.799 635.843 369.872 637.851C371.283 638.67 372.673 639.489 374.018 640.198C380.854 643.801 387.676 647.433 394.483 651.095C394.602 651.155 394.708 651.239 394.794 651.342C394.88 651.445 394.944 651.564 394.983 651.692C395.023 651.82 395.036 651.955 395.022 652.088C395.008 652.221 394.967 652.351 394.902 652.468C394.809 652.705 394.627 652.896 394.395 652.999Z" fill="#231F20"/>
<path d="M376 511C371.4 513.669 346.733 568.728 336 595Z" fill="white"/>
<path d="M335.052 597C334.88 597.001 334.712 596.96 334.56 596.881C334.408 596.802 334.279 596.688 334.182 596.547C334.085 596.407 334.025 596.245 334.006 596.077C333.988 595.908 334.011 595.737 334.074 595.579C344.009 571.151 370.018 512.281 375.383 509.168C375.501 509.092 375.634 509.04 375.773 509.016C375.911 508.991 376.054 508.995 376.191 509.027C376.328 509.059 376.458 509.117 376.571 509.2C376.685 509.282 376.781 509.387 376.853 509.507C376.925 509.627 376.972 509.761 376.991 509.899C377.009 510.038 377 510.179 376.962 510.313C376.925 510.448 376.86 510.574 376.773 510.683C376.685 510.793 376.576 510.884 376.452 510.95C372.428 513.206 348.42 565.828 336.007 596.346C335.933 596.538 335.802 596.703 335.632 596.82C335.461 596.937 335.259 597 335.052 597Z" fill="#231F20"/>
<path d="M199.262 618L198 629.08L341.557 690L342 678.353L199.262 618Z" fill="white"/>
<path d="M342.44 690.975C342.294 691.008 342.142 691.008 341.995 690.975L197.676 630.128C197.454 630.035 197.269 629.875 197.149 629.671C197.028 629.466 196.979 629.229 197.008 628.995L198.277 617.928C198.294 617.759 198.354 617.597 198.451 617.456C198.548 617.316 198.679 617.201 198.833 617.122C198.987 617.042 199.159 617 199.334 617C199.508 617 199.68 617.042 199.834 617.122L343.331 677.359C343.539 677.445 343.715 677.591 343.834 677.778C343.954 677.966 344.011 678.185 343.998 678.405L343.553 690.039C343.543 690.218 343.489 690.393 343.396 690.549C343.304 690.704 343.174 690.835 343.019 690.932C342.834 690.998 342.634 691.014 342.44 690.975V690.975ZM199.3 628.363L341.372 688.252L341.751 678.928L200.324 619.518L199.3 628.363Z" fill="#231F20"/>
<path d="M199 617.554C199 617.554 241.07 597.435 242.139 598.012C243.208 598.59 392 657.97 392 657.97L342.603 679L199 617.554Z" fill="white"/>
<path d="M342.807 679.977C342.661 680.008 342.51 680.008 342.364 679.977L199.665 618.589C199.47 618.504 199.304 618.365 199.186 618.188C199.069 618.012 199.004 617.805 199.001 617.592C198.993 617.381 199.048 617.171 199.158 616.99C199.268 616.809 199.429 616.664 199.62 616.573C241.957 596.236 242.886 596.746 243.506 597.1C245.719 598.097 390.853 656.272 392.314 656.915C392.519 656.993 392.696 657.133 392.819 657.315C392.942 657.498 393.005 657.714 393 657.934C393.003 658.151 392.942 658.364 392.824 658.545C392.705 658.727 392.535 658.869 392.336 658.953L343.25 679.932C343.107 679.978 342.956 679.993 342.807 679.977V679.977ZM202.785 617.504L342.807 677.673L388.994 658.023C366.155 648.851 250.101 602.351 242.798 599.294C239.921 599.958 217.79 610.326 202.785 617.504Z" fill="#231F20"/>
<path d="M342 690L390.146 668.328L392 658L342.447 678.462L342 690Z" fill="white"/>
<path d="M342.115 690.999C341.894 691.009 341.675 690.947 341.492 690.822C341.33 690.719 341.199 690.574 341.113 690.402C341.027 690.231 340.989 690.039 341.003 689.848L341.448 678.027C341.46 677.82 341.529 677.62 341.647 677.449C341.764 677.277 341.926 677.141 342.115 677.053L391.463 656.09C391.645 656.011 391.845 655.983 392.041 656.01C392.237 656.038 392.422 656.119 392.575 656.245C392.738 656.365 392.862 656.529 392.933 656.717C393.005 656.906 393.019 657.111 392.975 657.308L391.152 667.867C391.117 668.041 391.043 668.206 390.935 668.348C390.827 668.489 390.688 668.605 390.529 668.686L342.582 690.822C342.441 690.914 342.282 690.975 342.115 690.999V690.999ZM343.649 678.824L343.271 688.232L389.039 667.025L390.418 659.012L343.649 678.824Z" fill="#231F20"/>
<path d="M199.939 617.429L197 513L347 582.36L342.404 679L199.939 617.429Z" fill="white"/>
<path d="M342.243 679.977C342.097 680.008 341.947 680.008 341.802 679.977L199.617 618.393C199.421 618.311 199.254 618.171 199.136 617.994C199.019 617.816 198.956 617.607 198.955 617.393L196 513.095C195.997 512.906 196.042 512.718 196.13 512.551C196.219 512.384 196.349 512.242 196.507 512.14C196.669 512.048 196.851 512 197.037 512C197.222 512 197.404 512.048 197.566 512.14L347.359 581.346C347.559 581.432 347.728 581.579 347.842 581.766C347.957 581.953 348.011 582.171 347.998 582.39L343.411 678.91C343.404 679.088 343.354 679.262 343.266 679.417C343.177 679.572 343.053 679.703 342.904 679.799C342.712 679.935 342.477 679.998 342.243 679.977V679.977ZM201.116 616.615L341.206 677.221L345.617 583.035L198.271 514.829L201.116 616.615Z" fill="#231F20"/>
<path d="M423.461 673.977C423.308 674.008 423.15 674.008 422.997 673.977L392.648 659.899C392.415 659.793 392.226 659.608 392.113 659.377C392 659.146 391.971 658.882 392.029 658.632L401.203 620.024C401.261 619.745 401.426 619.501 401.661 619.343C401.897 619.185 402.184 619.126 402.463 619.179L461.79 628.742L459.844 534.134C459.838 533.987 459.862 533.841 459.914 533.704C459.966 533.566 460.044 533.441 460.146 533.335C460.247 533.229 460.368 533.145 460.503 533.087C460.637 533.029 460.781 533 460.927 533V533C461.215 533.005 461.49 533.121 461.695 533.324C461.901 533.527 462.021 533.801 462.033 534.09L464 630.032C464.002 630.194 463.967 630.354 463.898 630.5C463.829 630.647 463.728 630.775 463.602 630.877C463.483 630.984 463.342 631.063 463.19 631.11C463.037 631.156 462.876 631.167 462.718 631.144L403.037 621.536L394.306 658.254L423.837 671.753C423.969 671.813 424.088 671.899 424.186 672.005C424.285 672.112 424.361 672.238 424.41 672.374C424.46 672.511 424.481 672.657 424.474 672.802C424.467 672.947 424.431 673.09 424.368 673.221C424.305 673.421 424.186 673.6 424.025 673.734C423.865 673.868 423.669 673.952 423.461 673.977V673.977Z" fill="#231F20"/>
<path d="M272.124 720H271.943C271.649 719.951 271.387 719.791 271.213 719.555C271.039 719.319 270.968 719.026 271.014 718.738C271.195 717.631 275.546 691.644 283.954 678.452C284.122 678.228 284.37 678.074 284.648 678.021C284.927 677.967 285.216 678.018 285.458 678.163C285.7 678.307 285.878 678.536 285.956 678.802C286.034 679.069 286.007 679.355 285.88 679.603C277.79 692.419 273.28 718.827 273.234 719.092C273.191 719.348 273.055 719.581 272.851 719.747C272.648 719.914 272.39 720.003 272.124 720V720Z" fill="white"/>
<path d="M409.515 525.79L411.734 533.424L384 592.04L391.896 613L409.211 597.844L416.324 533.379L420 529.496L416.215 523L409.515 525.79Z" fill="#231F20"/>
<path d="M611.821 712.6L473.896 747.986L493.441 824.716L631.366 789.33L611.821 712.6Z" fill="#BBDED6"/>
<path d="M493.696 826C493.495 825.993 493.297 825.94 493.12 825.844C492.874 825.681 492.693 825.436 492.61 825.152L473.031 748.007C472.963 747.72 473.008 747.418 473.157 747.164C473.306 746.909 473.547 746.723 473.829 746.645L612.033 711.076C612.305 710.975 612.604 710.975 612.876 711.076C613.004 711.149 613.115 711.249 613.203 711.368C613.291 711.487 613.353 711.623 613.386 711.768L632.964 788.912C633.001 789.055 633.01 789.203 632.989 789.348C632.969 789.494 632.92 789.634 632.846 789.76C632.772 789.887 632.674 789.997 632.557 790.086C632.44 790.174 632.308 790.238 632.166 790.275L493.962 825.844L493.696 826ZM475.47 748.632L494.494 823.611L630.548 788.578L611.634 713.509L475.47 748.632Z" fill="#231F20"/>
<path d="M493 825L551.45 764L632 789.448L493 825Z" fill="#BBDED6"/>
<path d="M493.123 826C492.929 825.999 492.738 825.946 492.57 825.847C492.402 825.748 492.263 825.606 492.166 825.436C492.035 825.226 491.979 824.977 492.007 824.73C492.036 824.484 492.147 824.255 492.322 824.081L550.672 762.36C550.815 762.207 550.996 762.097 551.196 762.041C551.396 761.985 551.608 761.986 551.808 762.044L632.22 787.825C632.451 787.899 632.652 788.046 632.793 788.246C632.933 788.445 633.006 788.686 633 788.931C632.989 789.176 632.9 789.412 632.748 789.603C632.596 789.793 632.388 789.93 632.154 789.992L493.39 825.955L493.123 826ZM551.808 764.414L496.618 822.794L627.835 788.773L551.808 764.414Z" fill="#231F20"/>
<path d="M474 748.081L554.945 777L612 713L474 748.081Z" fill="#BBDED6"/>
<path d="M555.516 778.982C555.391 779.006 555.262 779.006 555.137 778.982L473.736 749.25C473.513 749.169 473.322 749.017 473.19 748.818C473.058 748.619 472.992 748.382 473.001 748.142C473.01 747.899 473.095 747.665 473.243 747.474C473.391 747.283 473.595 747.145 473.825 747.078L612.604 711.033C612.833 710.976 613.075 710.993 613.294 711.083C613.514 711.172 613.701 711.328 613.828 711.531C613.957 711.738 614.016 711.983 613.996 712.228C613.976 712.473 613.878 712.705 613.717 712.888L556.34 778.666C556.232 778.775 556.103 778.86 555.961 778.914C555.819 778.969 555.667 778.992 555.516 778.982V778.982ZM477.899 748.3L555.182 776.516L609.642 714.065L477.899 748.3Z" fill="#231F20"/>
<path d="M684.904 640.562L606.192 660.097L616.981 703.884L695.693 684.35L684.904 640.562Z" fill="#BBDED6"/>
<path d="M616.931 705C616.682 704.998 616.441 704.914 616.244 704.761C616.048 704.607 615.907 704.393 615.843 704.15L605.031 660.065C604.963 659.778 605.008 659.475 605.157 659.221C605.306 658.966 605.548 658.78 605.83 658.701L684.802 639.041C684.942 639.001 685.089 638.99 685.233 639.009C685.377 639.029 685.516 639.078 685.641 639.153C685.766 639.228 685.874 639.329 685.959 639.448C686.044 639.567 686.103 639.703 686.134 639.846L696.969 683.931C697.003 684.074 697.009 684.223 696.986 684.369C696.964 684.515 696.912 684.655 696.835 684.781C696.762 684.91 696.663 685.022 696.545 685.111C696.426 685.199 696.291 685.262 696.147 685.295L617.198 704.955L616.931 705ZM607.451 660.602L617.753 702.517L694.549 683.394L684.358 641.479L607.451 660.602Z" fill="#231F20"/>
<path d="M617 704L650.435 669L696 684.078L617 704Z" fill="#BBDED6"/>
<path d="M617.101 704.956C616.908 704.96 616.717 704.911 616.55 704.814C616.383 704.718 616.245 704.578 616.153 704.41C616.031 704.205 615.98 703.965 616.007 703.729C616.035 703.492 616.141 703.271 616.307 703.099L649.506 669.338C649.647 669.189 649.828 669.083 650.027 669.033C650.226 668.983 650.436 668.99 650.631 669.053L695.897 683.607C696.19 683.607 696.47 683.722 696.677 683.927C696.884 684.132 697 684.41 697 684.7C697 684.989 696.884 685.267 696.677 685.472C696.47 685.677 696.19 685.792 695.897 685.792L617.454 705L617.101 704.956ZM650.609 671.348L620.587 701.941L691.529 684.568L650.609 671.348Z" fill="#231F20"/>
<path d="M607 660.341L651.94 678L684 640L607 660.341Z" fill="#BBDED6"/>
<path d="M652.102 677.984C651.97 678.005 651.836 678.005 651.704 677.984L605.711 660.873C605.49 660.787 605.302 660.632 605.175 660.431C605.047 660.229 604.987 659.992 605.002 659.753C605.01 659.514 605.094 659.285 605.242 659.099C605.389 658.913 605.593 658.781 605.822 658.723L684.625 639.036C684.853 638.976 685.095 638.991 685.314 639.08C685.533 639.169 685.719 639.326 685.843 639.529C685.965 639.738 686.018 639.981 685.994 640.222C685.97 640.464 685.871 640.692 685.71 640.872L652.922 677.626C652.705 677.848 652.411 677.976 652.102 677.984V677.984ZM609.876 660.066L651.77 675.744L681.656 642.149L609.876 660.066Z" fill="#231F20"/>
<path d="M567.627 629.52L503.116 658.508L519.122 694.385L583.633 665.398L567.627 629.52Z" fill="#BBDED6"/>
<path d="M519.984 695C519.772 695.005 519.563 694.948 519.383 694.835C519.203 694.722 519.061 694.559 518.974 694.366L503.103 659.055C503.041 658.924 503.007 658.783 503.001 658.639C502.995 658.496 503.018 658.352 503.07 658.217C503.121 658.083 503.199 657.96 503.299 657.856C503.399 657.752 503.519 657.669 503.652 657.612L567.62 629.097C567.888 628.978 568.192 628.968 568.467 629.07C568.742 629.173 568.966 629.378 569.09 629.643L584.918 664.845C585.027 665.111 585.027 665.409 584.918 665.675C584.807 665.941 584.604 666.158 584.347 666.287L520.357 694.694C520.257 694.822 520.13 694.926 519.984 695V695ZM505.54 659.164L520.533 692.465L582.503 664.845L567.532 631.544L505.54 659.164Z" fill="#231F20"/>
<path d="M520 694L543.083 660L584 665.521L520 694Z" fill="#BBDED6"/>
<path d="M520.128 694.999C519.925 695.009 519.724 694.962 519.547 694.863C519.37 694.765 519.224 694.618 519.128 694.441C519.032 694.263 518.988 694.062 519.003 693.861C519.017 693.66 519.089 693.468 519.209 693.305L542.23 659.486C542.343 659.317 542.501 659.183 542.687 659.099C542.872 659.014 543.078 658.983 543.281 659.009L584.049 664.522C584.284 664.552 584.503 664.658 584.673 664.822C584.843 664.987 584.954 665.201 584.99 665.434C585.022 665.668 584.977 665.905 584.863 666.112C584.749 666.319 584.571 666.485 584.355 666.584L520.566 694.803C520.436 694.899 520.287 694.966 520.128 694.999V694.999ZM543.653 661.244L523.17 691.374L579.957 666.15L543.653 661.244Z" fill="#231F20"/>
<path d="M503 658.46L545.367 666L568 629L503 658.46Z" fill="#BBDED6"/>
<path d="M545.69 666H545.515L503.886 658.699C503.657 658.658 503.449 658.544 503.291 658.374C503.133 658.205 503.034 657.989 503.009 657.759C502.979 657.527 503.024 657.291 503.139 657.086C503.253 656.881 503.43 656.719 503.645 656.622L567.491 628.096C567.709 627.999 567.951 627.975 568.184 628.026C568.417 628.077 568.627 628.201 568.784 628.38C568.924 628.566 569 628.792 569 629.025C569 629.257 568.924 629.484 568.784 629.669L546.545 665.519C546.448 665.659 546.321 665.775 546.173 665.858C546.025 665.941 545.86 665.99 545.69 666V666ZM507.786 657.256L545.164 663.814L565.147 631.637L507.786 657.256Z" fill="#231F20"/>
<path d="M284.626 372H155.285C151.231 372 147.344 373.621 144.477 376.505C141.61 379.389 140 383.301 140 387.38V453.961C140 455.981 140.395 457.981 141.164 459.847C141.932 461.713 143.058 463.409 144.477 464.837C145.896 466.265 147.581 467.398 149.436 468.171C151.29 468.944 153.278 469.342 155.285 469.342H270.444L284.163 493L284.34 469.342H284.715C286.722 469.342 288.71 468.944 290.564 468.171C292.419 467.398 294.104 466.265 295.523 464.837C296.942 463.409 298.068 461.713 298.836 459.847C299.605 457.981 300 455.981 300 453.961V387.38C300 385.353 299.602 383.346 298.828 381.474C298.054 379.602 296.921 377.903 295.492 376.474C294.063 375.044 292.368 373.913 290.503 373.145C288.638 372.378 286.641 371.989 284.626 372Z" fill="white"/>
<path d="M284.073 493.997C283.88 493.996 283.692 493.944 283.525 493.847C283.359 493.75 283.221 493.611 283.125 493.444L269.746 470.382H155.376C151.035 470.376 146.873 468.64 143.803 465.554C140.733 462.468 139.006 458.285 139 453.921V387.46C139.006 383.096 140.733 378.913 143.803 375.828C146.873 372.742 151.035 371.006 155.376 371H284.624C288.967 371 293.132 372.734 296.203 375.821C299.275 378.908 301 383.095 301 387.46V453.921C300.998 458.159 299.371 462.233 296.456 465.295C293.541 468.357 289.563 470.171 285.351 470.359L285.175 492.912C285.176 493.153 285.096 493.387 284.948 493.576C284.8 493.765 284.592 493.898 284.359 493.953C284.269 493.991 284.17 494.007 284.073 493.997V493.997ZM155.376 373.215C151.619 373.221 148.018 374.724 145.361 377.394C142.705 380.064 141.21 383.684 141.204 387.46V453.921C141.21 457.697 142.705 461.317 145.361 463.987C148.018 466.658 151.619 468.16 155.376 468.166H270.451C270.647 468.163 270.841 468.213 271.011 468.311C271.182 468.408 271.323 468.549 271.421 468.72L283.103 488.858L283.235 469.274C283.235 468.98 283.351 468.698 283.558 468.491C283.765 468.283 284.045 468.166 284.337 468.166H284.712C288.469 468.16 292.07 466.658 294.727 463.987C297.383 461.317 298.878 457.697 298.884 453.921V387.46C298.884 383.682 297.391 380.059 294.733 377.388C292.075 374.716 288.471 373.215 284.712 373.215H155.376Z" fill="#231F20"/>
<path d="M198 425L257 388L207.003 409.33L198 425Z" fill="#231F20"/>
<path d="M198.111 426C197.816 425.996 197.535 425.873 197.328 425.658C197.154 425.477 197.042 425.243 197.01 424.992C196.977 424.741 197.026 424.486 197.149 424.265L206.097 408.746C206.219 408.53 206.408 408.361 206.634 408.267L256.452 387.088C256.712 386.977 257.004 386.971 257.269 387.071C257.534 387.171 257.752 387.369 257.88 387.626C258.007 387.883 258.034 388.18 257.956 388.457C257.878 388.734 257.7 388.97 257.458 389.119L198.693 425.817C198.519 425.932 198.318 425.995 198.111 426ZM207.864 410.23L201.355 421.481L244.081 394.87L207.864 410.23Z" fill="#231F20"/>
<path d="M207 408.359L226.308 418L257 388L207 408.359Z" fill="#BBDED6"/>
<path d="M226.346 419.975C226.19 420.008 226.03 420.008 225.874 419.975L206.6 410.058C206.392 409.962 206.222 409.798 206.116 409.594C206.011 409.39 205.976 409.156 206.017 408.929C206.021 408.733 206.083 408.542 206.195 408.381C206.307 408.22 206.463 408.097 206.645 408.025L256.615 387.063C256.834 386.982 257.073 386.979 257.294 387.053C257.515 387.127 257.705 387.274 257.832 387.471C257.959 387.667 258.017 387.901 257.996 388.134C257.974 388.368 257.875 388.587 257.714 388.757L227.064 419.659C226.874 419.853 226.616 419.966 226.346 419.975V419.975ZM209.495 409.11L226.211 417.671L252.688 391.038L209.495 409.11Z" fill="#231F20"/>
<path d="M257 388L194.26 403L180 394.844L257 388Z" fill="#BBDED6"/>
<path d="M194.273 405C194.101 405 193.933 404.952 193.785 404.859L179.508 396.223C179.323 396.11 179.177 395.938 179.089 395.732C179.002 395.525 178.978 395.295 179.021 395.074C179.067 394.849 179.18 394.645 179.344 394.493C179.508 394.341 179.713 394.248 179.93 394.229L256.9 387.001C257.152 386.99 257.399 387.073 257.598 387.236C257.797 387.4 257.934 387.632 257.987 387.893C258.028 388.159 257.973 388.432 257.834 388.658C257.694 388.884 257.48 389.046 257.233 389.113L194.517 405H194.273ZM183.321 396.059L194.406 402.794L243.178 390.427L183.321 396.059Z" fill="#231F20"/>
<path d="M194 403.532L198.476 425L207.406 409.33L257 388L194 403.532Z" fill="#BBDED6"/>
<path d="M198.457 426H198.301C198.098 425.966 197.91 425.869 197.763 425.721C197.615 425.573 197.516 425.382 197.477 425.174L193.025 403.781C192.996 403.648 192.992 403.511 193.014 403.377C193.036 403.242 193.084 403.114 193.154 402.999C193.224 402.884 193.316 402.784 193.424 402.705C193.532 402.627 193.654 402.571 193.782 402.541L256.729 387.025C256.979 386.969 257.24 387.008 257.465 387.135C257.689 387.261 257.863 387.466 257.953 387.713C258.029 387.967 258.012 388.24 257.906 388.481C257.799 388.723 257.61 388.915 257.374 389.022L208.094 410.162L199.347 425.495C199.252 425.65 199.121 425.778 198.965 425.866C198.809 425.955 198.634 426.001 198.457 426V426ZM195.229 404.332L198.946 422.121L206.559 408.808C206.67 408.61 206.843 408.457 207.048 408.372L244.887 392.097L195.229 404.332Z" fill="#231F20"/>
<path d="M196.117 436.618C196.117 436.398 196.082 436.204 196.013 436.036C195.948 435.863 195.832 435.708 195.664 435.57C195.5 435.431 195.271 435.3 194.977 435.175C194.688 435.05 194.322 434.922 193.877 434.793C193.411 434.655 192.99 434.502 192.615 434.333C192.24 434.161 191.918 433.964 191.651 433.744C191.383 433.524 191.178 433.272 191.036 432.987C190.893 432.702 190.822 432.376 190.822 432.01C190.822 431.643 190.898 431.304 191.049 430.993C191.2 430.683 191.415 430.413 191.696 430.184C191.981 429.951 192.319 429.77 192.712 429.641C193.105 429.511 193.543 429.446 194.026 429.446C194.734 429.446 195.333 429.582 195.825 429.854C196.322 430.122 196.699 430.473 196.958 430.909C197.217 431.341 197.346 431.802 197.346 432.294H196.104C196.104 431.941 196.028 431.628 195.877 431.356C195.726 431.08 195.497 430.864 195.191 430.709C194.885 430.549 194.496 430.469 194.026 430.469C193.582 430.469 193.215 430.536 192.926 430.67C192.637 430.804 192.421 430.985 192.278 431.213C192.14 431.442 192.071 431.703 192.071 431.997C192.071 432.195 192.112 432.376 192.194 432.54C192.281 432.7 192.412 432.849 192.589 432.987C192.77 433.125 192.999 433.252 193.275 433.369C193.556 433.485 193.89 433.598 194.278 433.705C194.813 433.856 195.275 434.025 195.664 434.21C196.052 434.396 196.371 434.605 196.621 434.838C196.876 435.067 197.064 435.328 197.185 435.621C197.31 435.91 197.372 436.238 197.372 436.605C197.372 436.989 197.295 437.337 197.139 437.647C196.984 437.958 196.762 438.223 196.473 438.443C196.183 438.663 195.836 438.834 195.431 438.955C195.029 439.071 194.58 439.129 194.084 439.129C193.648 439.129 193.219 439.069 192.796 438.948C192.378 438.827 191.996 438.646 191.651 438.405C191.31 438.163 191.036 437.865 190.828 437.511C190.626 437.153 190.524 436.739 190.524 436.269H191.767C191.767 436.592 191.83 436.871 191.955 437.104C192.08 437.332 192.25 437.522 192.466 437.673C192.686 437.824 192.934 437.936 193.21 438.01C193.491 438.079 193.782 438.113 194.084 438.113C194.52 438.113 194.889 438.053 195.191 437.932C195.493 437.811 195.722 437.639 195.877 437.414C196.037 437.19 196.117 436.924 196.117 436.618ZM201.69 439.129C201.202 439.129 200.76 439.047 200.363 438.883C199.97 438.715 199.631 438.48 199.346 438.178C199.066 437.876 198.85 437.518 198.699 437.104C198.548 436.689 198.473 436.236 198.473 435.744V435.472C198.473 434.903 198.557 434.396 198.725 433.951C198.893 433.503 199.122 433.123 199.411 432.812C199.7 432.502 200.028 432.266 200.395 432.107C200.762 431.947 201.142 431.867 201.534 431.867C202.035 431.867 202.466 431.953 202.829 432.126C203.195 432.299 203.495 432.54 203.728 432.851C203.961 433.157 204.134 433.52 204.246 433.938C204.358 434.353 204.414 434.806 204.414 435.298V435.835H199.185V434.858H203.217V434.767C203.2 434.456 203.135 434.154 203.023 433.861C202.915 433.567 202.742 433.326 202.505 433.136C202.268 432.946 201.944 432.851 201.534 432.851C201.262 432.851 201.012 432.909 200.783 433.026C200.555 433.138 200.358 433.306 200.194 433.531C200.03 433.755 199.903 434.029 199.812 434.353C199.722 434.676 199.677 435.05 199.677 435.472V435.744C199.677 436.077 199.722 436.389 199.812 436.683C199.907 436.972 200.043 437.227 200.22 437.447C200.401 437.667 200.619 437.839 200.874 437.964C201.133 438.09 201.426 438.152 201.754 438.152C202.177 438.152 202.535 438.066 202.829 437.893C203.122 437.721 203.379 437.49 203.599 437.201L204.324 437.777C204.173 438.005 203.981 438.223 203.748 438.43C203.515 438.638 203.228 438.806 202.887 438.935C202.55 439.065 202.151 439.129 201.69 439.129ZM207.01 433.492V439H205.813V431.997H206.945L207.01 433.492ZM206.725 435.233L206.227 435.214C206.231 434.735 206.302 434.292 206.44 433.887C206.579 433.477 206.773 433.121 207.023 432.819C207.273 432.517 207.571 432.284 207.916 432.12C208.266 431.951 208.652 431.867 209.075 431.867C209.42 431.867 209.731 431.915 210.007 432.01C210.283 432.1 210.518 432.247 210.712 432.45C210.911 432.653 211.062 432.916 211.165 433.239C211.269 433.559 211.321 433.949 211.321 434.411V439H210.117V434.398C210.117 434.031 210.063 433.738 209.955 433.518C209.847 433.293 209.69 433.132 209.483 433.032C209.275 432.929 209.021 432.877 208.719 432.877C208.421 432.877 208.149 432.939 207.903 433.065C207.662 433.19 207.452 433.362 207.275 433.582C207.103 433.802 206.967 434.055 206.868 434.34C206.773 434.62 206.725 434.918 206.725 435.233ZM216.072 431.997V432.916H212.285V431.997H216.072ZM213.567 430.294H214.764V437.265C214.764 437.503 214.801 437.682 214.874 437.803C214.948 437.923 215.043 438.003 215.159 438.042C215.276 438.081 215.401 438.1 215.534 438.1C215.634 438.1 215.737 438.092 215.845 438.074C215.957 438.053 216.041 438.036 216.098 438.023L216.104 439C216.009 439.03 215.884 439.058 215.729 439.084C215.578 439.114 215.394 439.129 215.178 439.129C214.885 439.129 214.615 439.071 214.369 438.955C214.123 438.838 213.927 438.644 213.78 438.372C213.638 438.096 213.567 437.725 213.567 437.259V430.294Z" fill="black"/>
<path d="M275.934 820C275.64 820 275.358 819.883 275.151 819.674C274.943 819.466 274.826 819.183 274.826 818.888C274.826 818.593 274.943 818.31 275.151 818.101C275.358 817.893 275.64 817.775 275.934 817.775C278.88 817.775 281.826 817.775 284.795 817.553C285.089 817.553 285.37 817.67 285.578 817.879C285.786 818.087 285.903 818.37 285.903 818.665C285.903 818.96 285.786 819.243 285.578 819.452C285.37 819.66 285.089 819.778 284.795 819.778C281.826 819.889 278.858 819.956 275.934 820ZM267.073 820C264.126 820 261.158 820 258.212 819.778C257.922 819.766 257.648 819.641 257.449 819.428C257.25 819.216 257.142 818.934 257.148 818.643C257.165 818.348 257.294 818.071 257.508 817.868C257.723 817.665 258.006 817.553 258.3 817.553C261.247 817.664 264.171 817.731 267.161 817.775C267.455 817.775 267.737 817.893 267.945 818.101C268.152 818.31 268.269 818.593 268.269 818.888C268.269 819.183 268.152 819.466 267.945 819.674C267.737 819.883 267.455 820 267.161 820H267.073ZM293.656 819.377C293.376 819.377 293.106 819.269 292.904 819.074C292.701 818.879 292.582 818.613 292.571 818.332C292.562 818.185 292.581 818.039 292.629 817.901C292.676 817.762 292.751 817.635 292.847 817.525C292.944 817.415 293.061 817.326 293.193 817.262C293.324 817.198 293.466 817.161 293.612 817.153C296.536 816.997 299.482 816.797 302.473 816.552C302.617 816.54 302.763 816.557 302.9 816.602C303.038 816.647 303.165 816.72 303.275 816.815C303.384 816.91 303.473 817.027 303.537 817.157C303.601 817.288 303.639 817.43 303.647 817.575C303.659 817.721 303.642 817.869 303.598 818.008C303.553 818.148 303.481 818.277 303.386 818.389C303.292 818.5 303.176 818.592 303.046 818.659C302.915 818.725 302.774 818.765 302.628 818.777C299.682 818.999 296.735 819.199 293.767 819.377H293.656ZM249.351 819.377C246.382 819.199 243.436 818.999 240.489 818.754C240.344 818.743 240.202 818.702 240.072 818.636C239.942 818.569 239.827 818.477 239.732 818.366C239.638 818.254 239.566 818.125 239.521 817.985C239.476 817.846 239.459 817.699 239.47 817.553C239.482 817.407 239.522 817.265 239.589 817.134C239.655 817.004 239.746 816.888 239.857 816.793C239.969 816.698 240.097 816.625 240.236 816.58C240.375 816.535 240.521 816.518 240.667 816.53C243.613 816.774 246.537 816.975 249.528 817.153C249.822 817.153 250.103 817.27 250.311 817.478C250.519 817.687 250.635 817.97 250.635 818.265C250.635 818.56 250.519 818.843 250.311 819.051C250.103 819.26 249.822 819.377 249.528 819.377H249.351ZM311.378 817.976C311.105 817.968 310.844 817.863 310.642 817.679C310.439 817.496 310.307 817.246 310.271 816.975C310.255 816.828 310.269 816.681 310.311 816.54C310.353 816.399 310.422 816.268 310.515 816.154C310.608 816.04 310.722 815.946 310.851 815.877C310.98 815.808 311.122 815.765 311.267 815.751C314.221 815.44 317.175 815.106 320.129 814.75C320.274 814.731 320.422 814.741 320.563 814.779C320.705 814.818 320.838 814.884 320.954 814.974C321.07 815.064 321.168 815.175 321.241 815.303C321.314 815.431 321.361 815.572 321.38 815.718C321.399 815.864 321.389 816.012 321.351 816.154C321.313 816.297 321.247 816.43 321.158 816.547C321.068 816.663 320.957 816.761 320.829 816.835C320.702 816.908 320.562 816.956 320.417 816.975C317.463 817.36 314.509 817.694 311.555 817.976H311.378ZM231.783 817.976H231.673C228.726 817.642 225.78 817.286 222.812 816.908C222.518 816.87 222.251 816.716 222.07 816.48C221.89 816.244 221.81 815.946 221.848 815.651C221.886 815.356 222.039 815.088 222.274 814.907C222.509 814.725 222.806 814.645 223.1 814.683C226.002 815.062 228.926 815.417 231.961 815.729C232.254 815.747 232.529 815.881 232.724 816.102C232.92 816.323 233.019 816.613 233.002 816.908C232.984 817.203 232.851 817.479 232.63 817.675C232.41 817.871 232.121 817.971 231.828 817.953L231.783 817.976ZM328.967 815.751C328.706 815.749 328.453 815.654 328.255 815.483C328.056 815.312 327.924 815.076 327.882 814.817C327.857 814.672 327.861 814.523 327.895 814.38C327.928 814.237 327.991 814.102 328.078 813.983C328.164 813.865 328.274 813.765 328.401 813.691C328.527 813.616 328.667 813.568 328.812 813.549C331.714 813.104 334.639 812.637 337.541 812.147C337.683 812.122 337.83 812.126 337.971 812.158C338.112 812.19 338.246 812.251 338.364 812.336C338.481 812.421 338.581 812.529 338.656 812.653C338.732 812.777 338.782 812.916 338.803 813.06C338.832 813.202 338.831 813.348 338.802 813.49C338.772 813.632 338.714 813.766 338.632 813.885C338.549 814.003 338.443 814.104 338.32 814.18C338.197 814.256 338.06 814.306 337.917 814.328C334.993 814.839 332.069 815.306 329.056 815.751H328.967ZM214.238 815.573H214.061C211.137 815.106 208.213 814.594 205.311 814.061C205.165 814.034 205.027 813.979 204.902 813.899C204.778 813.819 204.67 813.715 204.586 813.593C204.502 813.471 204.442 813.334 204.411 813.189C204.379 813.044 204.376 812.894 204.403 812.748C204.429 812.602 204.483 812.463 204.563 812.338C204.643 812.213 204.747 812.105 204.868 812.02C204.989 811.936 205.126 811.876 205.271 811.844C205.415 811.813 205.564 811.81 205.71 811.836C208.612 812.392 211.514 812.882 214.416 813.349C214.561 813.36 214.703 813.401 214.833 813.467C214.963 813.534 215.078 813.626 215.173 813.737C215.268 813.849 215.339 813.978 215.384 814.118C215.429 814.257 215.446 814.404 215.435 814.55C215.423 814.696 215.383 814.838 215.316 814.969C215.25 815.099 215.159 815.215 215.048 815.31C214.937 815.405 214.808 815.478 214.669 815.523C214.53 815.568 214.384 815.585 214.238 815.573ZM346.446 812.748C346.152 812.778 345.859 812.689 345.63 812.501C345.402 812.313 345.257 812.042 345.228 811.747C345.198 811.452 345.287 811.157 345.474 810.928C345.661 810.699 345.931 810.553 346.224 810.524C349.126 809.945 352.029 809.345 354.886 808.722C355.18 808.657 355.487 808.712 355.741 808.874C355.994 809.037 356.173 809.294 356.238 809.589C356.302 809.884 356.247 810.193 356.085 810.447C355.923 810.702 355.667 810.881 355.374 810.946L346.668 812.748H346.446ZM196.849 812.303H196.605C193.703 811.68 190.823 811.013 187.943 810.301C187.803 810.267 187.671 810.206 187.554 810.12C187.438 810.034 187.34 809.926 187.265 809.802C187.191 809.678 187.142 809.54 187.122 809.396C187.101 809.253 187.109 809.107 187.146 808.966C187.214 808.681 187.392 808.434 187.641 808.28C187.89 808.125 188.19 808.076 188.475 808.143C191.332 808.855 194.19 809.5 197.07 810.123C197.213 810.155 197.348 810.214 197.468 810.299C197.588 810.383 197.69 810.49 197.768 810.614C197.846 810.738 197.899 810.877 197.924 811.022C197.949 811.166 197.944 811.315 197.912 811.458C197.854 811.711 197.709 811.935 197.502 812.09C197.295 812.245 197.04 812.32 196.782 812.303H196.849ZM363.659 808.944C363.412 808.945 363.173 808.862 362.979 808.709C362.786 808.555 362.651 808.34 362.595 808.099C362.559 807.957 362.55 807.81 362.571 807.665C362.591 807.52 362.639 807.38 362.714 807.254C362.788 807.128 362.886 807.018 363.002 806.93C363.119 806.842 363.252 806.778 363.393 806.742C366.273 806.03 369.13 805.289 371.966 804.517C372.248 804.442 372.548 804.482 372.801 804.628C373.054 804.774 373.24 805.014 373.317 805.296C373.387 805.582 373.346 805.884 373.202 806.14C373.058 806.396 372.822 806.587 372.542 806.675C369.684 807.432 366.804 808.166 363.925 808.9L363.659 808.944ZM179.547 808.099H179.237C176.379 807.298 173.544 806.475 170.708 805.607C170.415 805.519 170.168 805.317 170.022 805.046C169.877 804.775 169.845 804.456 169.933 804.161C170.021 803.867 170.222 803.619 170.492 803.473C170.762 803.327 171.079 803.294 171.373 803.383C174.164 804.25 177 805.074 179.835 805.852C180.118 805.935 180.357 806.126 180.502 806.383C180.647 806.641 180.686 806.945 180.611 807.231C180.558 807.468 180.43 807.68 180.246 807.837C180.062 807.993 179.832 808.085 179.592 808.099H179.547ZM380.783 804.295C380.489 804.336 380.191 804.259 379.954 804.079C379.717 803.9 379.561 803.633 379.52 803.338C379.479 803.043 379.556 802.744 379.735 802.506C379.913 802.269 380.179 802.112 380.473 802.07C383.308 801.247 386.122 800.358 388.913 799.468C389.058 799.423 389.211 799.406 389.363 799.421C389.514 799.435 389.662 799.479 389.797 799.55C389.931 799.621 390.051 799.718 390.148 799.836C390.245 799.953 390.319 800.089 390.364 800.235C390.409 800.381 390.425 800.535 390.411 800.687C390.397 800.839 390.353 800.987 390.282 801.123C390.211 801.258 390.114 801.378 389.997 801.476C389.88 801.573 389.745 801.647 389.6 801.692C386.786 802.604 383.951 803.472 381.093 804.317C381.004 804.327 380.913 804.319 380.827 804.295H380.783ZM162.623 802.871C162.505 802.893 162.385 802.893 162.268 802.871C159.455 801.915 156.663 800.891 153.916 799.846C153.674 799.722 153.486 799.512 153.388 799.257C153.289 799.002 153.288 798.72 153.384 798.464C153.48 798.208 153.666 797.996 153.907 797.87C154.149 797.743 154.428 797.71 154.692 797.777C157.439 798.8 160.186 799.801 162.977 800.758C163.253 800.859 163.48 801.064 163.608 801.33C163.736 801.596 163.756 801.901 163.664 802.182C163.585 802.383 163.447 802.556 163.27 802.679C163.092 802.802 162.882 802.869 162.667 802.871H162.623ZM397.663 798.823C397.435 798.826 397.211 798.757 397.024 798.625C396.837 798.493 396.697 798.305 396.622 798.089C396.529 797.808 396.549 797.503 396.677 797.237C396.806 796.971 397.032 796.766 397.309 796.665C400.1 795.686 402.869 794.663 405.616 793.617C405.751 793.564 405.895 793.539 406.04 793.542C406.186 793.546 406.328 793.579 406.461 793.639C406.593 793.699 406.712 793.785 406.81 793.893C406.908 794 406.985 794.125 407.034 794.262C407.087 794.4 407.113 794.546 407.109 794.693C407.106 794.841 407.073 794.986 407.014 795.12C406.954 795.255 406.868 795.376 406.761 795.477C406.654 795.578 406.529 795.657 406.391 795.708C403.644 796.754 400.853 797.777 398.04 798.778C397.932 798.811 397.82 798.826 397.707 798.823H397.663ZM146.074 796.598C145.936 796.63 145.792 796.63 145.654 796.598C142.907 795.441 140.16 794.24 137.501 793.039C137.368 792.977 137.249 792.889 137.15 792.78C137.051 792.671 136.975 792.544 136.925 792.405C136.876 792.267 136.854 792.12 136.862 791.972C136.869 791.825 136.906 791.681 136.97 791.549C137.029 791.416 137.115 791.296 137.221 791.197C137.327 791.098 137.452 791.021 137.588 790.972C137.725 790.922 137.87 790.9 138.014 790.908C138.159 790.915 138.301 790.951 138.432 791.015C141.068 792.216 143.771 793.417 146.495 794.552C146.631 794.605 146.754 794.686 146.858 794.788C146.961 794.89 147.044 795.013 147.099 795.147C147.155 795.282 147.183 795.427 147.182 795.573C147.181 795.719 147.151 795.863 147.093 795.998C147.002 796.176 146.862 796.326 146.689 796.428C146.517 796.53 146.319 796.582 146.119 796.576L146.074 796.598ZM414.256 792.505C414.036 792.51 413.819 792.447 413.637 792.323C413.454 792.2 413.314 792.022 413.237 791.815C413.179 791.681 413.149 791.537 413.148 791.391C413.147 791.245 413.175 791.1 413.231 790.965C413.286 790.83 413.369 790.708 413.472 790.606C413.576 790.504 413.699 790.423 413.835 790.37C416.559 789.235 419.262 788.145 421.943 786.877C422.076 786.818 422.22 786.786 422.366 786.784C422.512 786.781 422.658 786.807 422.793 786.861C422.929 786.915 423.053 786.995 423.158 787.097C423.263 787.199 423.347 787.321 423.405 787.455C423.519 787.725 423.525 788.028 423.421 788.301C423.318 788.575 423.114 788.798 422.851 788.924C420.148 790.125 417.423 791.282 414.676 792.438C414.554 792.47 414.427 792.485 414.3 792.483L414.256 792.505ZM130.036 789.191C129.868 789.185 129.702 789.148 129.548 789.079C126.89 787.745 124.254 786.343 121.684 784.92C121.556 784.85 121.443 784.755 121.351 784.641C121.259 784.527 121.191 784.396 121.15 784.256C121.108 784.115 121.095 783.968 121.111 783.822C121.127 783.676 121.171 783.535 121.241 783.407C121.386 783.151 121.624 782.962 121.905 782.879C122.186 782.796 122.488 782.826 122.748 782.962C125.295 784.386 127.909 785.765 130.545 787.077C130.804 787.219 130.998 787.455 131.089 787.736C131.179 788.018 131.159 788.323 131.033 788.59C130.936 788.771 130.793 788.923 130.617 789.029C130.442 789.135 130.241 789.191 130.036 789.191V789.191ZM430.494 785.275C430.285 785.281 430.079 785.225 429.902 785.115C429.724 785.004 429.584 784.843 429.497 784.653C429.432 784.521 429.395 784.378 429.385 784.232C429.376 784.086 429.396 783.94 429.443 783.801C429.491 783.663 429.565 783.535 429.661 783.425C429.758 783.316 429.875 783.226 430.006 783.162C432.665 781.872 435.301 780.559 437.915 779.203C438.176 779.067 438.481 779.041 438.761 779.131C439.041 779.22 439.275 779.418 439.41 779.681C439.545 779.943 439.571 780.249 439.482 780.531C439.392 780.812 439.195 781.047 438.934 781.182C436.298 782.539 433.661 783.874 430.959 785.164C430.814 785.235 430.654 785.265 430.494 785.253V785.275ZM114.551 780.604C114.346 780.599 114.147 780.538 113.975 780.426C111.428 778.891 108.902 777.289 106.443 775.666C106.2 775.503 106.032 775.25 105.973 774.962C105.915 774.675 105.973 774.376 106.133 774.131C106.211 774.008 106.314 773.902 106.434 773.819C106.554 773.736 106.689 773.679 106.832 773.65C106.974 773.621 107.121 773.621 107.264 773.65C107.406 773.679 107.542 773.737 107.662 773.819C110.098 775.421 112.602 777 115.127 778.535C115.375 778.687 115.553 778.931 115.623 779.214C115.694 779.497 115.651 779.796 115.504 780.048C115.405 780.215 115.266 780.353 115.099 780.45C114.933 780.548 114.744 780.601 114.551 780.604ZM446.222 777.067C446.026 777.065 445.833 777.013 445.663 776.916C445.492 776.819 445.349 776.679 445.247 776.511C445.111 776.25 445.082 775.947 445.164 775.665C445.247 775.382 445.436 775.143 445.69 774.998C448.26 773.552 450.808 772.062 453.311 770.549C453.436 770.473 453.575 770.423 453.719 770.401C453.864 770.379 454.011 770.385 454.153 770.42C454.295 770.456 454.429 770.518 454.546 770.605C454.664 770.692 454.764 770.802 454.839 770.927C454.915 771.053 454.965 771.192 454.987 771.337C455.009 771.483 455.003 771.631 454.968 771.773C454.933 771.916 454.87 772.05 454.784 772.168C454.697 772.286 454.588 772.386 454.463 772.462C451.937 773.945 449.368 775.428 446.754 776.911C446.592 777.008 446.41 777.061 446.222 777.067V777.067ZM99.7752 770.794C99.546 770.793 99.3223 770.723 99.1327 770.594C96.7107 768.829 94.3404 767.027 92.0217 765.188C91.7935 765.005 91.6468 764.738 91.6136 764.446C91.5804 764.155 91.6634 763.862 91.8445 763.631C92.0344 763.405 92.3032 763.261 92.5957 763.228C92.8881 763.195 93.1822 763.275 93.4173 763.453C95.6326 765.277 98.0473 767.057 100.418 768.792C100.537 768.876 100.639 768.983 100.718 769.108C100.796 769.232 100.849 769.37 100.874 769.515C100.898 769.66 100.894 769.808 100.862 769.951C100.829 770.094 100.768 770.229 100.683 770.349C100.577 770.489 100.439 770.602 100.282 770.679C100.124 770.756 99.9506 770.796 99.7752 770.794ZM85.9076 759.671C85.6404 759.67 85.382 759.576 85.1765 759.404C83.1828 757.647 81.189 755.845 79.2839 754.043L78.5971 753.376C78.494 753.275 78.412 753.153 78.3561 753.02C78.3002 752.886 78.2713 752.742 78.2713 752.597C78.2713 752.452 78.3002 752.309 78.3561 752.175C78.412 752.042 78.494 751.92 78.5971 751.819C78.7001 751.715 78.8226 751.632 78.9576 751.575C79.0926 751.519 79.2374 751.49 79.3836 751.49C79.5298 751.49 79.6746 751.519 79.8095 751.575C79.9445 751.632 80.067 751.715 80.17 751.819L80.8346 752.464C82.7397 754.266 84.6892 756.045 86.6829 757.758C86.8557 757.907 86.9789 758.105 87.0356 758.326C87.0924 758.547 87.08 758.78 87.0002 758.994C86.9204 759.208 86.7769 759.392 86.5894 759.521C86.4018 759.65 86.1792 759.718 85.9519 759.716L85.9076 759.671ZM73.059 747.437C72.7596 747.436 72.4728 747.316 72.2615 747.103C70.1791 744.878 68.1411 742.654 66.1916 740.563C66.0885 740.461 66.0065 740.34 65.9506 740.207C65.8946 740.073 65.8658 739.929 65.8658 739.784C65.8658 739.639 65.8946 739.496 65.9506 739.362C66.0065 739.228 66.0885 739.107 66.1916 739.006C66.2946 738.902 66.4171 738.819 66.5521 738.762C66.687 738.706 66.8318 738.677 66.978 738.677C67.1242 738.677 67.269 738.706 67.404 738.762C67.539 738.819 67.6615 738.902 67.7645 739.006C69.7139 741.23 71.7298 743.455 73.79 745.479C73.8938 745.582 73.9762 745.705 74.0325 745.841C74.0887 745.977 74.1176 746.122 74.1176 746.269C74.1176 746.416 74.0887 746.561 74.0325 746.697C73.9762 746.832 73.8938 746.955 73.79 747.058C73.613 747.3 73.3522 747.467 73.059 747.526V747.437ZM61.2294 734.09C61.0633 734.087 60.8998 734.048 60.7504 733.975C60.6011 733.902 60.4696 733.797 60.3654 733.667C58.4603 731.442 56.6216 728.995 54.8494 726.66C54.6787 726.422 54.6065 726.127 54.6478 725.836C54.6891 725.546 54.8407 725.283 55.0709 725.103C55.3059 724.926 55.6013 724.85 55.8922 724.891C56.183 724.933 56.4454 725.089 56.6216 725.325C58.3717 727.55 60.2104 729.974 62.0712 732.266C62.1662 732.376 62.2382 732.504 62.2831 732.642C62.3279 732.781 62.3446 732.927 62.3323 733.072C62.3199 733.217 62.2786 733.359 62.2109 733.488C62.1433 733.616 62.0506 733.73 61.9383 733.823C61.7713 734.065 61.5171 734.232 61.2294 734.29V734.09ZM50.5739 719.875C50.394 719.875 50.2168 719.831 50.0583 719.745C49.8997 719.66 49.7648 719.536 49.6657 719.386C47.982 716.916 46.3427 714.38 44.8142 711.867C44.6898 711.618 44.6631 711.331 44.7395 711.063C44.8158 710.795 44.9896 710.565 45.2264 710.42C45.4632 710.274 45.7458 710.223 46.0181 710.277C46.2905 710.331 46.5329 710.485 46.6972 710.71C48.2036 713.179 49.8207 715.693 51.4822 718.14C51.5655 718.259 51.6243 718.394 51.655 718.536C51.6856 718.678 51.6876 718.825 51.6607 718.968C51.6339 719.111 51.5788 719.248 51.4987 719.369C51.4185 719.49 51.315 719.594 51.1942 719.675C51.043 719.88 50.8224 720.022 50.5739 720.075V719.875ZM41.3141 704.726C41.1153 704.724 40.9205 704.67 40.7494 704.568C40.5782 704.467 40.4368 704.322 40.3393 704.148C38.8994 701.523 37.526 698.831 36.2411 696.184C36.1776 696.051 36.1409 695.907 36.1333 695.76C36.1257 695.613 36.1472 695.466 36.1967 695.327C36.2462 695.189 36.3225 695.061 36.4214 694.952C36.5203 694.844 36.6397 694.756 36.7728 694.694C36.902 694.63 37.0426 694.592 37.1865 694.583C37.3303 694.574 37.4745 694.594 37.6106 694.642C37.7467 694.689 37.872 694.764 37.9792 694.86C38.0864 694.957 38.1733 695.074 38.2348 695.205C39.4975 697.83 40.871 700.477 42.2666 703.08C42.3403 703.205 42.3879 703.343 42.4065 703.487C42.4251 703.631 42.4144 703.777 42.3751 703.916C42.3357 704.055 42.2685 704.185 42.1774 704.298C42.0864 704.41 41.9736 704.503 41.8457 704.57C41.7134 704.746 41.5261 704.871 41.3141 704.926V704.726ZM33.5828 688.888C33.3603 688.891 33.142 688.827 32.9563 688.704C32.7706 688.581 32.6261 688.405 32.5416 688.198C31.4118 685.462 30.3263 682.637 29.3516 679.856C29.2612 679.581 29.2812 679.282 29.4073 679.021C29.5333 678.761 29.7555 678.56 30.0267 678.462C30.2978 678.363 30.5965 678.375 30.8593 678.494C31.1221 678.613 31.3282 678.83 31.4339 679.1C32.4087 681.858 33.472 684.639 34.6018 687.353C34.7062 687.625 34.7023 687.927 34.5909 688.196C34.4796 688.465 34.2693 688.681 34.0037 688.799C33.8713 688.858 33.7278 688.888 33.5828 688.888ZM27.6901 672.115C27.4496 672.119 27.2146 672.042 27.0221 671.897C26.8297 671.752 26.6906 671.547 26.6268 671.314C25.8071 668.444 25.054 665.53 24.4115 662.638C24.3789 662.495 24.3747 662.347 24.3994 662.202C24.4241 662.058 24.4772 661.919 24.5554 661.795C24.6337 661.671 24.7357 661.564 24.8555 661.479C24.9752 661.395 25.1105 661.335 25.2533 661.304C25.5381 661.244 25.8348 661.299 26.0793 661.458C26.3239 661.616 26.4967 661.864 26.5603 662.149C27.2028 664.996 27.9338 667.866 28.7756 670.691C28.8163 670.831 28.8292 670.978 28.8134 671.124C28.7976 671.269 28.7534 671.409 28.6835 671.537C28.6135 671.665 28.5192 671.778 28.4057 671.87C28.2923 671.961 28.1621 672.03 28.0224 672.07C27.93 672.103 27.8323 672.118 27.7344 672.115H27.6901ZM23.8134 654.764C23.5479 654.767 23.29 654.675 23.0867 654.503C22.8834 654.332 22.7482 654.093 22.7058 653.829C22.2406 650.871 21.864 647.89 21.576 644.931C21.5495 644.636 21.6409 644.343 21.8299 644.116C22.0189 643.888 22.2902 643.746 22.5839 643.719C22.8777 643.693 23.1699 643.784 23.3963 643.974C23.6228 644.164 23.7648 644.436 23.7913 644.731C24.0792 647.623 24.4558 650.559 24.921 653.474C24.9464 653.618 24.9431 653.766 24.9111 653.91C24.8791 654.053 24.8191 654.189 24.7347 654.309C24.6503 654.429 24.543 654.531 24.4191 654.609C24.2952 654.687 24.1571 654.74 24.0128 654.764H23.8134ZM22.1076 637.079C21.8194 637.073 21.5441 636.958 21.3382 636.755C21.1322 636.552 21.0113 636.278 21 635.989C21 634.521 21 633.053 21 631.54C21 630.027 21 628.47 21 626.957C21.0027 626.81 21.035 626.665 21.095 626.531C21.155 626.397 21.2414 626.276 21.349 626.177C21.4567 626.077 21.5833 626 21.7213 625.951C21.8593 625.901 22.0058 625.881 22.1519 625.89C22.4418 625.901 22.7156 626.027 22.9145 626.239C23.1133 626.451 23.2213 626.733 23.2153 627.024C23.2153 628.515 23.2153 630.027 23.2153 631.473C23.2153 632.919 23.2153 634.343 23.2153 635.789C23.2212 635.937 23.1977 636.084 23.146 636.223C23.0944 636.362 23.0158 636.488 22.9147 636.596C22.8136 636.704 22.6921 636.79 22.5573 636.85C22.4225 636.91 22.2772 636.943 22.1298 636.945L22.1076 637.079ZM22.7058 619.283C22.561 619.272 22.4199 619.232 22.2909 619.165C22.1618 619.098 22.0474 619.006 21.9545 618.894C21.8615 618.782 21.7919 618.652 21.7497 618.513C21.7075 618.373 21.6937 618.227 21.7089 618.082C22.019 615.101 22.4178 612.098 22.9273 609.184C22.9487 609.04 22.9987 608.901 23.0742 608.777C23.1497 608.653 23.2493 608.545 23.367 608.46C23.4847 608.375 23.6181 608.315 23.7595 608.282C23.9008 608.25 24.0472 608.246 24.19 608.272C24.3343 608.296 24.4724 608.348 24.5963 608.427C24.7202 608.505 24.8275 608.607 24.9119 608.727C24.9964 608.847 25.0563 608.982 25.0883 609.125C25.1203 609.269 25.1237 609.417 25.0983 609.562C24.6109 612.431 24.2121 615.368 23.9242 618.304C23.886 618.587 23.745 618.846 23.5282 619.031C23.3115 619.215 23.0343 619.313 22.7501 619.305L22.7058 619.283ZM25.6964 601.754H25.4305C25.2893 601.718 25.1566 601.654 25.0401 601.566C24.9235 601.478 24.8254 601.368 24.7513 601.242C24.6772 601.116 24.6286 600.976 24.6083 600.831C24.588 600.686 24.5964 600.539 24.633 600.397C25.3198 597.483 26.1394 594.591 27.0477 591.766C27.1389 591.486 27.3372 591.253 27.5988 591.12C27.8605 590.986 28.1642 590.963 28.4433 591.054C28.5806 591.097 28.708 591.167 28.8182 591.26C28.9283 591.352 29.019 591.466 29.085 591.595C29.1509 591.723 29.1909 591.863 29.2024 592.007C29.2139 592.151 29.1969 592.296 29.1522 592.433C28.2661 595.214 27.4686 598.061 26.7819 600.931C26.724 601.166 26.5909 601.377 26.4029 601.529C26.2149 601.682 25.9823 601.769 25.7407 601.776L25.6964 601.754ZM31.1238 584.825C30.9854 584.858 30.8413 584.858 30.7029 584.825C30.5675 584.771 30.4441 584.691 30.3397 584.589C30.2352 584.487 30.1518 584.366 30.0942 584.232C30.0366 584.097 30.0059 583.953 30.0039 583.807C30.0019 583.66 30.0287 583.515 30.0826 583.379C31.1903 580.621 32.4308 577.863 33.7378 575.193C33.79 575.045 33.8728 574.909 33.981 574.796C34.0891 574.682 34.22 574.592 34.3651 574.533C34.5102 574.474 34.6662 574.446 34.8227 574.452C34.9793 574.458 35.1328 574.497 35.2732 574.566C35.4136 574.636 35.5377 574.735 35.6373 574.856C35.7369 574.978 35.8097 575.119 35.8509 575.271C35.8921 575.422 35.9008 575.581 35.8765 575.737C35.8521 575.892 35.7951 576.04 35.7094 576.172C34.4467 578.797 33.2283 581.489 32.1428 584.225C32.0512 584.407 31.9123 584.561 31.7408 584.671C31.5692 584.78 31.3714 584.841 31.1681 584.848L31.1238 584.825ZM38.9659 568.965C38.7704 568.966 38.5784 568.912 38.4121 568.809C38.2853 568.737 38.1742 568.641 38.0852 568.526C37.9962 568.41 37.9312 568.278 37.894 568.137C37.8568 567.996 37.8482 567.849 37.8687 567.705C37.8892 567.56 37.9384 567.421 38.0133 567.296C39.5197 564.738 41.0925 562.18 42.7318 559.688C42.905 559.473 43.1521 559.329 43.4248 559.287C43.6975 559.245 43.9762 559.306 44.2063 559.459C44.4363 559.612 44.6012 559.846 44.6686 560.115C44.7359 560.383 44.701 560.668 44.5705 560.912C42.9755 563.359 41.4027 565.895 39.9184 568.408C39.8218 568.577 39.683 568.716 39.5159 568.814C39.3488 568.911 39.1592 568.963 38.9659 568.965ZM48.7352 554.105C48.4948 554.11 48.26 554.031 48.0707 553.882C47.8385 553.709 47.6831 553.452 47.6375 553.165C47.592 552.878 47.66 552.585 47.827 552.348C49.5992 549.945 51.4379 547.565 53.3209 545.274C53.4112 545.159 53.5234 545.064 53.651 544.994C53.7785 544.924 53.9188 544.881 54.0634 544.866C54.208 544.852 54.3541 544.867 54.4929 544.91C54.6317 544.953 54.7605 545.024 54.8716 545.118C55.0965 545.305 55.2389 545.573 55.2679 545.864C55.297 546.156 55.2103 546.447 55.0266 546.675C53.1658 548.9 51.3493 551.28 49.6214 553.66C49.5105 553.785 49.3736 553.883 49.2204 553.949C49.0672 554.014 48.9016 554.045 48.7352 554.038V554.105ZM59.9667 540.357C59.8318 540.36 59.6978 540.336 59.5723 540.286C59.4468 540.237 59.3324 540.163 59.2356 540.068C59.1318 539.965 59.0494 539.842 58.9932 539.706C58.9369 539.571 58.908 539.425 58.908 539.279C58.908 539.132 58.9369 538.986 58.9932 538.851C59.0494 538.715 59.1318 538.592 59.2356 538.489C61.2294 536.264 63.3339 534.04 65.4384 532.06C65.5395 531.956 65.6601 531.874 65.7932 531.818C65.9264 531.762 66.0694 531.733 66.2138 531.733C66.3582 531.733 66.5011 531.762 66.6343 531.818C66.7674 531.874 66.888 531.956 66.9891 532.06C67.0929 532.163 67.1753 532.286 67.2316 532.422C67.2878 532.558 67.3167 532.703 67.3167 532.85C67.3167 532.997 67.2878 533.142 67.2316 533.277C67.1753 533.413 67.0929 533.536 66.9891 533.639C64.9068 535.664 62.8465 537.799 60.8528 539.979C60.7377 540.094 60.5984 540.182 60.445 540.236C60.2916 540.29 60.1282 540.309 59.9667 540.291V540.357ZM72.6381 527.922C72.4822 527.924 72.328 527.89 72.1863 527.825C72.0447 527.76 71.9191 527.664 71.8184 527.544C71.7153 527.443 71.6333 527.322 71.5774 527.188C71.5214 527.054 71.4926 526.911 71.4926 526.766C71.4926 526.621 71.5214 526.477 71.5774 526.343C71.6333 526.21 71.7153 526.089 71.8184 525.987C74.0337 524.007 76.3819 522.094 78.7079 520.27C78.9448 520.129 79.2248 520.08 79.4953 520.132C79.7659 520.183 80.0082 520.333 80.1769 520.551C80.3456 520.77 80.429 521.043 80.4114 521.319C80.3938 521.595 80.2764 521.855 80.0814 522.05C77.8661 523.829 75.4958 525.72 73.2805 527.656C73.0922 527.788 72.8677 527.857 72.6381 527.856V527.922ZM256.727 524.408C256.526 524.406 256.329 524.349 256.157 524.244C255.985 524.138 255.845 523.987 255.753 523.807C254.303 521.315 252.579 518.994 250.613 516.889C250.416 516.668 250.315 516.377 250.332 516.081C250.348 515.785 250.482 515.507 250.702 515.31C250.922 515.112 251.212 515.01 251.507 515.027C251.802 515.044 252.078 515.177 252.275 515.398C254.37 517.634 256.192 520.114 257.702 522.784C257.771 522.912 257.814 523.053 257.827 523.198C257.841 523.342 257.826 523.489 257.783 523.628C257.739 523.767 257.669 523.895 257.575 524.006C257.481 524.117 257.366 524.209 257.237 524.274C257.076 524.34 256.9 524.363 256.727 524.341V524.408ZM86.7494 516.956C86.5687 516.96 86.3899 516.918 86.2307 516.832C86.0714 516.746 85.9372 516.62 85.8411 516.466C85.7577 516.347 85.699 516.212 85.6683 516.07C85.6377 515.928 85.6357 515.781 85.6625 515.638C85.6894 515.495 85.7445 515.358 85.8246 515.237C85.9048 515.116 86.0083 515.012 86.1291 514.931C88.5659 513.241 91.0913 511.617 93.6167 510.082C93.7407 510.002 93.8796 509.949 94.0249 509.924C94.1702 509.9 94.3188 509.906 94.4618 509.941C94.6048 509.977 94.7392 510.041 94.8566 510.13C94.9741 510.219 95.0723 510.332 95.1453 510.46C95.2216 510.585 95.2725 510.725 95.2949 510.87C95.3173 511.015 95.3108 511.164 95.2758 511.306C95.2407 511.449 95.1779 511.584 95.0908 511.702C95.0038 511.82 94.8943 511.92 94.7687 511.995C92.2654 513.485 89.7843 515.109 87.3696 516.755C87.1895 516.887 86.9721 516.957 86.7494 516.956V516.956ZM245.053 511.127C244.792 511.127 244.541 511.032 244.344 510.86C242.1 508.995 239.747 507.264 237.299 505.677C237.177 505.597 237.072 505.493 236.99 505.372C236.907 505.251 236.85 505.115 236.82 504.971C236.79 504.828 236.789 504.68 236.816 504.535C236.843 504.391 236.898 504.254 236.978 504.131C237.058 504.009 237.162 503.903 237.282 503.82C237.403 503.738 237.539 503.68 237.682 503.65C237.824 503.62 237.972 503.619 238.115 503.646C238.259 503.673 238.396 503.728 238.518 503.809C241.034 505.453 243.453 507.243 245.762 509.17C245.933 509.317 246.056 509.513 246.113 509.732C246.171 509.951 246.16 510.183 246.083 510.395C246.006 510.608 245.866 510.792 245.682 510.923C245.498 511.054 245.278 511.125 245.053 511.127V511.127ZM101.813 507.791C101.608 507.791 101.408 507.735 101.232 507.629C101.056 507.523 100.913 507.372 100.816 507.19C100.683 506.93 100.658 506.628 100.745 506.349C100.832 506.07 101.025 505.837 101.282 505.7C103.896 504.32 106.598 503.008 109.323 501.785C109.455 501.722 109.598 501.687 109.744 501.681C109.89 501.675 110.035 501.699 110.172 501.75C110.308 501.802 110.433 501.881 110.538 501.983C110.644 502.084 110.728 502.206 110.785 502.341C110.899 502.61 110.905 502.913 110.802 503.186C110.699 503.46 110.494 503.683 110.231 503.809C107.551 505.01 104.892 506.3 102.323 507.657C102.166 507.743 101.991 507.789 101.813 507.791ZM230.299 501.384C230.128 501.381 229.961 501.335 229.812 501.251C227.264 499.983 224.562 498.781 221.815 497.714C221.543 497.609 221.323 497.401 221.202 497.134C221.082 496.868 221.071 496.564 221.172 496.29C221.224 496.152 221.302 496.026 221.403 495.919C221.503 495.811 221.624 495.725 221.758 495.665C221.892 495.605 222.036 495.572 222.183 495.569C222.33 495.565 222.476 495.591 222.612 495.645C225.426 496.735 228.195 497.869 230.809 499.271C231.07 499.404 231.267 499.636 231.359 499.915C231.45 500.194 231.427 500.499 231.296 500.761C231.196 500.961 231.04 501.126 230.847 501.237C230.654 501.348 230.432 501.399 230.211 501.384H230.299ZM118.051 500.494C117.827 500.493 117.608 500.424 117.423 500.298C117.237 500.171 117.094 499.992 117.01 499.782C116.957 499.647 116.932 499.502 116.935 499.356C116.939 499.211 116.972 499.067 117.032 498.934C117.092 498.802 117.177 498.682 117.284 498.583C117.391 498.485 117.516 498.408 117.652 498.359C120.422 497.291 123.257 496.312 126.093 495.422C126.231 495.375 126.377 495.356 126.522 495.368C126.668 495.379 126.81 495.421 126.938 495.489C127.067 495.558 127.181 495.653 127.271 495.768C127.362 495.883 127.428 496.015 127.466 496.157C127.51 496.295 127.526 496.441 127.513 496.586C127.5 496.732 127.459 496.873 127.391 497.001C127.322 497.13 127.229 497.243 127.117 497.335C127.004 497.427 126.874 497.495 126.735 497.536C123.966 498.426 121.153 499.382 118.428 500.428C118.28 500.485 118.121 500.508 117.963 500.494H118.051ZM134.932 495.178C134.638 495.213 134.342 495.13 134.109 494.946C133.877 494.763 133.726 494.494 133.691 494.199C133.656 493.904 133.739 493.607 133.921 493.373C134.104 493.14 134.372 492.989 134.666 492.953C137.523 492.219 140.448 491.574 143.372 491.018C143.514 490.989 143.661 490.988 143.804 491.016C143.947 491.043 144.083 491.099 144.204 491.18C144.326 491.26 144.43 491.364 144.511 491.485C144.593 491.606 144.65 491.742 144.679 491.885C144.731 492.177 144.668 492.478 144.502 492.723C144.336 492.968 144.082 493.139 143.793 493.198C140.913 493.754 138.033 494.399 135.197 495.111L134.932 495.178ZM213.795 494.978H213.507C210.76 494.199 207.903 493.487 204.979 492.887C204.836 492.857 204.701 492.8 204.58 492.718C204.459 492.637 204.356 492.532 204.276 492.41C204.196 492.288 204.14 492.152 204.112 492.008C204.085 491.865 204.085 491.717 204.115 491.574C204.179 491.288 204.35 491.038 204.594 490.876C204.838 490.714 205.134 490.653 205.422 490.706C208.39 491.329 211.314 492.041 214.106 492.931C214.388 493.014 214.628 493.205 214.773 493.462C214.917 493.72 214.956 494.024 214.881 494.31C214.783 494.533 214.615 494.719 214.404 494.839C214.192 494.959 213.948 495.008 213.707 494.978H213.795ZM152.321 491.819C152.176 491.829 152.03 491.81 151.892 491.764C151.753 491.717 151.626 491.644 151.516 491.548C151.293 491.354 151.157 491.079 151.136 490.784C151.116 490.489 151.213 490.198 151.406 489.975C151.599 489.752 151.873 489.615 152.166 489.594C155.091 489.194 158.059 488.86 161.028 488.615C161.173 488.604 161.319 488.621 161.458 488.666C161.597 488.711 161.726 488.783 161.837 488.878C161.948 488.973 162.039 489.089 162.106 489.22C162.172 489.35 162.212 489.493 162.224 489.639C162.235 489.785 162.218 489.932 162.173 490.071C162.128 490.211 162.057 490.34 161.962 490.451C161.867 490.563 161.752 490.655 161.622 490.721C161.492 490.788 161.35 490.828 161.205 490.84C158.303 491.107 155.356 491.418 152.477 491.819H152.321ZM196.472 491.418H196.317C193.503 491.062 190.557 490.751 187.589 490.551C187.443 490.542 187.301 490.505 187.17 490.441C187.038 490.377 186.921 490.288 186.824 490.178C186.728 490.069 186.653 489.941 186.606 489.803C186.558 489.664 186.539 489.518 186.547 489.372C186.57 489.075 186.708 488.798 186.932 488.603C187.156 488.407 187.448 488.308 187.744 488.326C190.757 488.549 193.747 488.838 196.605 489.216C196.75 489.225 196.893 489.262 197.024 489.326C197.155 489.39 197.272 489.48 197.369 489.589C197.465 489.699 197.54 489.826 197.587 489.964C197.635 490.103 197.655 490.249 197.646 490.395C197.637 490.541 197.6 490.684 197.536 490.816C197.473 490.947 197.384 491.065 197.275 491.162C197.166 491.259 197.039 491.334 196.901 491.381C196.763 491.429 196.617 491.449 196.472 491.441V491.418ZM169.889 490.284C169.602 490.284 169.327 490.173 169.121 489.974C168.914 489.775 168.792 489.503 168.781 489.216C168.775 488.923 168.882 488.638 169.08 488.422C169.279 488.207 169.552 488.077 169.844 488.059C172.791 488.059 175.803 487.926 178.705 488.059C178.997 488.071 179.273 488.195 179.476 488.407C179.678 488.618 179.791 488.9 179.791 489.194C179.788 489.34 179.757 489.484 179.698 489.618C179.64 489.752 179.556 489.873 179.451 489.974C179.346 490.075 179.222 490.155 179.087 490.208C178.951 490.261 178.807 490.287 178.661 490.284C175.759 490.284 172.768 490.284 169.8 490.284H169.889Z" fill="#D1D3D4"/>
</svg>
